<?xml version="1.0" encoding="UTF-8" standalone="no"?>
<!-- Created with Inkscape (http://www.inkscape.org/) -->

<svg
   xmlns:dc="http://purl.org/dc/elements/1.1/"
   xmlns:cc="http://creativecommons.org/ns#"
   xmlns:rdf="http://www.w3.org/1999/02/22-rdf-syntax-ns#"
   xmlns:svg="http://www.w3.org/2000/svg"
   xmlns="http://www.w3.org/2000/svg"
   xmlns:sodipodi="http://sodipodi.sourceforge.net/DTD/sodipodi-0.dtd"
   xmlns:inkscape="http://www.inkscape.org/namespaces/inkscape"
   version="1.1"
   id="svg815"
   xml:space="preserve"
   width="768"
   height="768"
   viewBox="0 0 768 768"
   sodipodi:docname="srkw_schematic.svg"
   inkscape:version="0.92.4 (5da689c313, 2019-01-14)"
   inkscape:export-filename="C:\Users\ailene.ettinger.TNC\OneDrive - The Nature Conservancy\Documents\GitHub\fishphen\analyses\figures\srkw_schematic2.png"
   inkscape:export-xdpi="96"
   inkscape:export-ydpi="96"><metadata
     id="metadata821"><rdf:RDF><cc:Work
         rdf:about=""><dc:format>image/svg+xml</dc:format><dc:type
           rdf:resource="http://purl.org/dc/dcmitype/StillImage" /><dc:title /></cc:Work></rdf:RDF></metadata><defs
     id="defs819"><clipPath
       clipPathUnits="userSpaceOnUse"
       id="clipPath833"><path
         d="M 49,348.96 H 262.9 V 527 H 49 Z"
         id="path831"
         inkscape:connector-curvature="0" /></clipPath><clipPath
       clipPathUnits="userSpaceOnUse"
       id="clipPath873"><path
         d="M 0,288 H 288 V 576 H 0 Z"
         id="path871"
         inkscape:connector-curvature="0" /></clipPath><clipPath
       clipPathUnits="userSpaceOnUse"
       id="clipPath889"><path
         d="M 49,348.96 H 262.9 V 527 H 49 Z"
         id="path887"
         inkscape:connector-curvature="0" /></clipPath><clipPath
       clipPathUnits="userSpaceOnUse"
       id="clipPath929"><path
         d="M 49,348.96 H 262.9 V 527 H 49 Z"
         id="path927"
         inkscape:connector-curvature="0" /></clipPath><clipPath
       clipPathUnits="userSpaceOnUse"
       id="clipPath965"><path
         d="M 337,348.96 H 550.9 V 527 H 337 Z"
         id="path963"
         inkscape:connector-curvature="0" /></clipPath><clipPath
       clipPathUnits="userSpaceOnUse"
       id="clipPath1031"><path
         d="M 288,288 H 576 V 576 H 288 Z"
         id="path1029"
         inkscape:connector-curvature="0" /></clipPath><clipPath
       clipPathUnits="userSpaceOnUse"
       id="clipPath1053"><path
         d="M 49,60.96 H 262.9 V 239 H 49 Z"
         id="path1051"
         inkscape:connector-curvature="0" /></clipPath><clipPath
       clipPathUnits="userSpaceOnUse"
       id="clipPath1093"><path
         d="M 0,0 H 288 V 288 H 0 Z"
         id="path1091"
         inkscape:connector-curvature="0" /></clipPath><clipPath
       clipPathUnits="userSpaceOnUse"
       id="clipPath1109"><path
         d="M 49,60.96 H 262.9 V 239 H 49 Z"
         id="path1107"
         inkscape:connector-curvature="0" /></clipPath><clipPath
       clipPathUnits="userSpaceOnUse"
       id="clipPath1145"><path
         d="M 49,60.96 H 262.9 V 239 H 49 Z"
         id="path1143"
         inkscape:connector-curvature="0" /></clipPath><clipPath
       clipPathUnits="userSpaceOnUse"
       id="clipPath1175"><path
         d="M 337,60.96 H 550.9 V 239 H 337 Z"
         id="path1173"
         inkscape:connector-curvature="0" /></clipPath><clipPath
       clipPathUnits="userSpaceOnUse"
       id="clipPath1235"><path
         d="M 288,0 H 576 V 288 H 288 Z"
         id="path1233"
         inkscape:connector-curvature="0" /></clipPath></defs><sodipodi:namedview
     pagecolor="#ffffff"
     bordercolor="#666666"
     borderopacity="1"
     objecttolerance="10"
     gridtolerance="10"
     guidetolerance="10"
     inkscape:pageopacity="0"
     inkscape:pageshadow="2"
     inkscape:window-width="1920"
     inkscape:window-height="986"
     id="namedview817"
     showgrid="false"
     showguides="false"
     inkscape:snap-text-baseline="true"
     inkscape:zoom="1"
     inkscape:cx="490.17439"
     inkscape:cy="372.18841"
     inkscape:window-x="-11"
     inkscape:window-y="-11"
     inkscape:window-maximized="1"
     inkscape:current-layer="g1231" /><g
     id="g823"
     inkscape:groupmode="layer"
     inkscape:label="srkw_schematic"
     transform="matrix(1.3333333,0,0,-1.3333333,0,768)"><g
   id="g825" /><g
   id="g827"><g
     id="g829"
     clip-path="url(#clipPath833)"><path
       d="m 56.93,355.6 0.54,0.01 h 0.54 l 0.55,0.01 h 0.54 l 0.55,0.01 h 0.54 l 0.54,0.01 0.55,0.01 0.54,0.01 h 0.55 l 0.54,0.01 0.54,0.01 0.55,0.01 0.54,0.02 0.55,0.01 0.54,0.01 0.55,0.01 0.54,0.02 0.54,0.01 0.55,0.02 0.54,0.02 0.55,0.02 0.54,0.02 0.54,0.02 0.55,0.02 0.54,0.03 0.55,0.02 0.54,0.03 0.54,0.03 0.55,0.03 0.54,0.04 0.55,0.03 0.54,0.04 0.54,0.04 0.55,0.04 0.54,0.05 0.55,0.05 0.54,0.05 0.55,0.05 0.54,0.06 0.54,0.06 0.55,0.07 0.54,0.07 0.55,0.07 0.54,0.08 0.54,0.08 0.55,0.08 0.54,0.09 0.55,0.1 0.54,0.1 0.54,0.1 0.55,0.11 0.54,0.12 0.55,0.13 0.54,0.13 0.55,0.13 0.54,0.15 0.54,0.15 0.55,0.16 0.54,0.16 0.55,0.18 0.54,0.18 0.54,0.19 0.55,0.21 0.54,0.21 0.55,0.22 0.54,0.23 0.54,0.24 0.55,0.26 0.54,0.26 0.55,0.28 0.54,0.29 0.54,0.3 0.55,0.32 0.54,0.32 0.55,0.35 0.54,0.35 0.55,0.38 0.54,0.38 0.54,0.41 0.55,0.41 0.54,0.44 0.55,0.45 0.54,0.47 0.54,0.49 0.55,0.5 0.54,0.53 0.55,0.54 0.54,0.57 0.54,0.58 0.55,0.6 0.54,0.63 0.55,0.64 0.54,0.67 0.55,0.69 0.54,0.71 0.54,0.74 0.55,0.75 0.54,0.79 0.55,0.8 0.54,0.83 0.54,0.85 0.55,0.88 0.54,0.9 0.55,0.93 0.54,0.96 0.54,0.97 0.55,1.01 0.54,1.03 0.55,1.06 0.54,1.08 0.54,1.11 0.55,1.13 0.54,1.16 0.55,1.19 0.54,1.22 0.55,1.23 0.54,1.27 0.54,1.29 0.55,1.32 0.54,1.34 0.55,1.36 0.54,1.39 0.54,1.42 0.55,1.44 0.54,1.46 0.55,1.48 0.54,1.51 0.54,1.53 0.55,1.55 0.54,1.57 0.55,1.59 0.54,1.61 0.55,1.63 0.54,1.64 0.54,1.66 0.55,1.68 0.54,1.69 0.55,1.71 0.54,1.71 0.54,1.73 0.55,1.74 0.54,1.75 0.55,1.76 0.54,1.76 0.54,1.77 0.55,1.77 0.54,1.78 0.55,1.77 0.54,1.78 0.54,1.77 0.55,1.78 0.54,1.76 0.55,1.77 0.54,1.75 0.55,1.75 0.54,1.73 0.54,1.73 0.55,1.71 0.54,1.69 0.55,1.68 0.54,1.66 0.54,1.63 0.55,1.62 0.54,1.59 0.55,1.57 0.54,1.54 0.54,1.52 0.55,1.48 0.54,1.45 0.55,1.42 0.54,1.39 0.55,1.35 0.54,1.31 0.54,1.27 0.55,1.24 0.54,1.19 0.55,1.15 0.54,1.1 0.54,1.06 0.55,1.01 0.54,0.97 0.55,0.91 0.54,0.87 0.54,0.81 0.55,0.76 0.54,0.71 0.55,0.66 0.54,0.6 0.54,0.55 0.55,0.49 0.54,0.43 0.55,0.38 0.54,0.32 0.55,0.26 0.54,0.21 0.54,0.15 0.55,0.08 0.54,0.03 0.55,-0.03 0.54,-0.08 0.54,-0.15 0.55,-0.21 0.54,-0.26 0.55,-0.32 0.54,-0.38 0.54,-0.43 0.55,-0.49 0.54,-0.55 0.55,-0.6 0.54,-0.66 0.55,-0.71 0.54,-0.76 0.54,-0.81 0.55,-0.87 0.54,-0.91 0.55,-0.97 0.54,-1.01 0.54,-1.06 0.55,-1.1 0.54,-1.15 0.55,-1.19 0.54,-1.24 0.54,-1.27 0.55,-1.31 0.54,-1.35 0.55,-1.39 0.54,-1.42 0.54,-1.45 0.55,-1.48 0.54,-1.52 0.55,-1.54 0.54,-1.57 0.55,-1.59 0.54,-1.62 0.54,-1.63 0.55,-1.66 0.54,-1.68 0.55,-1.69 0.54,-1.71 0.54,-1.73 0.55,-1.73 0.54,-1.75 0.55,-1.75 0.54,-1.77 0.54,-1.76 0.55,-1.78 0.54,-1.77 0.55,-1.78 0.54,-1.77 0.55,-1.78 0.54,-1.77 0.54,-1.77 0.55,-1.76 0.54,-1.76 0.55,-1.75 0.54,-1.74 0.54,-1.73 0.55,-1.71 0.54,-1.71 0.55,-1.69 0.54,-1.68 0.54,-1.66 0.55,-1.64 0.54,-1.63 0.55,-1.61 0.54,-1.59 0.54,-1.57 0.55,-1.55 0.54,-1.53 0.55,-1.51 0.54,-1.48 0.55,-1.46 0.54,-1.44 0.54,-1.42 0.55,-1.39 0.54,-1.36 0.55,-1.34 0.54,-1.32 0.54,-1.29 0.55,-1.27 0.54,-1.23 0.55,-1.22 0.54,-1.19 0.54,-1.16 0.55,-1.13 0.54,-1.11 0.55,-1.08 0.54,-1.06 0.55,-1.03 0.54,-1.01 0.54,-0.97 0.55,-0.96 0.54,-0.93 0.55,-0.9 0.54,-0.88 0.54,-0.85 0.55,-0.83 0.54,-0.8 0.55,-0.79 0.54,-0.75 0.54,-0.74 0.55,-0.71 0.54,-0.69 0.55,-0.67 0.54,-0.64 0.54,-0.63 0.55,-0.6 0.54,-0.58 0.55,-0.57 0.54,-0.54 0.55,-0.53 0.54,-0.5 0.54,-0.49 0.55,-0.47 0.54,-0.45 0.55,-0.44 0.54,-0.41 0.54,-0.41 0.55,-0.38 0.54,-0.38 0.55,-0.35 0.54,-0.35 0.54,-0.32 0.55,-0.32 0.54,-0.3 0.55,-0.29 0.54,-0.28 0.55,-0.26 0.54,-0.26 0.54,-0.24 0.55,-0.23 0.54,-0.22 0.55,-0.21 0.54,-0.21 0.54,-0.19 0.55,-0.18 0.54,-0.18 0.55,-0.16 0.54,-0.16 0.54,-0.15 0.55,-0.15 0.54,-0.13 0.55,-0.13 0.54,-0.13 0.54,-0.12 0.55,-0.11 0.54,-0.1 0.55,-0.1 0.54,-0.1 0.55,-0.09 0.54,-0.08 0.54,-0.08 0.55,-0.08 0.54,-0.07 0.55,-0.07 0.54,-0.07 0.54,-0.06 0.55,-0.06 0.54,-0.05 0.55,-0.05 0.54,-0.05 0.54,-0.05 0.55,-0.04"
       style="fill:none;stroke:#00008b;stroke-width:1.5;stroke-linecap:round;stroke-linejoin:round;stroke-miterlimit:10;stroke-dasharray:4.5, 7.5;stroke-dashoffset:0;stroke-opacity:1"
       id="path835"
       inkscape:connector-curvature="0" /></g></g><g
   id="g837"><path
   d="M 56.38,348.96 H 219.61"
   style="fill:none;stroke:#000000;stroke-width:0.75;stroke-linecap:round;stroke-linejoin:round;stroke-miterlimit:10;stroke-dasharray:none;stroke-opacity:1"
   id="path839"
   inkscape:connector-curvature="0" />



<path
   d="M 49,527 V 348.96 h 213.9"
   style="fill:none;stroke:#000000;stroke-width:0.75;stroke-linecap:round;stroke-linejoin:round;stroke-miterlimit:10;stroke-dasharray:none;stroke-opacity:1"
   id="path865"
   inkscape:connector-curvature="0" /></g><g
   id="g867"><g
     id="g869"
     clip-path="url(#clipPath873)"><text
   transform="scale(1,-1)"
   style="font-variant:normal;font-weight:normal;font-size:15px;font-family:Helvetica;-inkscape-font-specification:Helvetica;writing-mode:lr-tb;fill:#000000;fill-opacity:1;fill-rule:nonzero;stroke:none"
   id="text877"
   x="119.22"
   y="-317.04001"><tspan
     x="119.22 127.56 135.45 142.95 147.12 155.46001 159.63 163.8 171 179.34 187.67999"
     y="-317.04001"
     sodipodi:role="line"
     id="tspan875">day of year</tspan></text>

<text
   transform="matrix(0,1,1,0,0,0)"
   style="font-variant:normal;font-weight:normal;font-size:15px;font-family:Helvetica;-inkscape-font-specification:Helvetica;writing-mode:lr-tb;fill:#000000;fill-opacity:1;fill-rule:nonzero;stroke:none"
   id="text881"
   x="364.62"
   y="33.260002"><tspan
     x="364.62 372.95999 380.45999 387.95999 396.29999 401.29501 406.29001 414.63 422.97 430.47 438.81 442.98001 451.32001 456.315 464.655 472.995 481.33499 489.67499 493.005 496.33499 499.66501 503.83499"
     y="33.260002"
     sodipodi:role="line"
     id="tspan879">occurrence probability</tspan></text>

</g></g><g
   id="g883"><g
     id="g885"
     clip-path="url(#clipPath889)"><path
       d="m 84.13,355.6 0.54,0.01 h 0.55 l 0.54,0.01 h 0.55 l 0.54,0.01 h 0.55 l 0.54,0.01 0.54,0.01 0.55,0.01 h 0.54 l 0.55,0.01 0.54,0.01 0.54,0.01 0.55,0.02 0.54,0.01 0.55,0.01 0.54,0.01 0.54,0.02 0.55,0.01 0.54,0.02 0.55,0.02 0.54,0.02 0.54,0.02 0.55,0.02 0.54,0.02 0.55,0.03 0.54,0.02 0.55,0.03 0.54,0.03 0.54,0.03 0.55,0.04 0.54,0.03 0.55,0.04 0.54,0.04 0.54,0.04 0.55,0.05 0.54,0.05 0.55,0.05 0.54,0.05 0.54,0.06 0.55,0.06 0.54,0.07 0.55,0.07 0.54,0.07 0.55,0.08 0.54,0.08 0.54,0.08 0.55,0.09 0.54,0.1 0.55,0.1 0.54,0.1 0.54,0.11 0.55,0.12 0.54,0.13 0.55,0.13 0.54,0.13 0.54,0.15 0.55,0.15 0.54,0.16 0.55,0.16 0.54,0.18 0.54,0.18 0.55,0.19 0.54,0.21 0.55,0.21 0.54,0.22 0.55,0.23 0.54,0.24 0.54,0.26 0.55,0.26 0.54,0.28 0.55,0.29 0.54,0.3 0.54,0.32 0.55,0.32 0.54,0.35 0.55,0.35 0.54,0.38 0.54,0.38 0.55,0.41 0.54,0.41 0.55,0.44 0.54,0.45 0.55,0.47 0.54,0.49 0.54,0.5 0.55,0.53 0.54,0.54 0.55,0.57 0.54,0.58 0.54,0.6 0.55,0.63 0.54,0.64 0.55,0.67 0.54,0.69 0.54,0.71 0.55,0.74 0.54,0.75 0.55,0.79 0.54,0.8 0.54,0.83 0.55,0.85 0.54,0.88 0.55,0.9 0.54,0.93 0.55,0.96 0.54,0.97 0.54,1.01 0.55,1.03 0.54,1.06 0.55,1.08 0.54,1.11 0.54,1.13 0.55,1.16 0.54,1.19 0.55,1.22 0.54,1.23 0.54,1.27 0.55,1.29 0.54,1.32 0.55,1.34 0.54,1.36 0.55,1.39 0.54,1.42 0.54,1.44 0.55,1.46 0.54,1.48 0.55,1.51 0.54,1.53 0.54,1.55 0.55,1.57 0.54,1.59 0.55,1.61 0.54,1.63 0.54,1.64 0.55,1.66 0.54,1.68 0.55,1.69 0.54,1.71 0.54,1.71 0.55,1.73 0.54,1.74 0.55,1.75 0.54,1.76 0.55,1.76 0.54,1.77 0.54,1.77 0.55,1.78 0.54,1.77 0.55,1.78 0.54,1.77 0.54,1.78 0.55,1.76 0.54,1.77 0.55,1.75 0.54,1.75 0.54,1.73 0.55,1.73 0.54,1.71 0.55,1.69 0.54,1.68 0.55,1.66 0.54,1.63 0.54,1.62 0.55,1.59 0.54,1.57 0.55,1.54 0.54,1.52 0.54,1.48 0.55,1.45 0.54,1.42 0.55,1.39 0.54,1.35 0.54,1.31 0.55,1.27 0.54,1.24 0.55,1.19 0.54,1.15 0.54,1.1 0.55,1.06 0.54,1.01 0.55,0.97 0.54,0.91 0.55,0.87 0.54,0.81 0.54,0.76 0.55,0.71 0.54,0.66 0.55,0.6 0.54,0.55 0.54,0.49 0.55,0.43 0.54,0.38 0.55,0.32 0.54,0.26 0.54,0.21 0.55,0.15 0.54,0.08 0.55,0.03 0.54,-0.03 0.55,-0.08 0.54,-0.15 0.54,-0.21 0.55,-0.26 0.54,-0.32 0.55,-0.38 0.54,-0.43 0.54,-0.49 0.55,-0.55 0.54,-0.6 0.55,-0.66 0.54,-0.71 0.54,-0.76 0.55,-0.81 0.54,-0.87 0.55,-0.91 0.54,-0.97 0.54,-1.01 0.55,-1.06 0.54,-1.1 0.55,-1.15 0.54,-1.19 0.55,-1.24 0.54,-1.27 0.54,-1.31 0.55,-1.35 0.54,-1.39 0.55,-1.42 0.54,-1.45 0.54,-1.48 0.55,-1.52 0.54,-1.54 0.55,-1.57 0.54,-1.59 0.54,-1.62 0.55,-1.63 0.54,-1.66 0.55,-1.68 0.54,-1.69 0.55,-1.71 0.54,-1.73 0.54,-1.73 0.55,-1.75 0.54,-1.75 0.55,-1.77 0.54,-1.76 0.54,-1.78 0.55,-1.77 0.54,-1.78 0.55,-1.77 0.54,-1.78 0.54,-1.77 0.55,-1.77 0.54,-1.76 0.55,-1.76 0.54,-1.75 0.54,-1.74 0.55,-1.73 0.54,-1.71 0.55,-1.71 0.54,-1.69 0.55,-1.68 0.54,-1.66 0.54,-1.64 0.55,-1.63 0.54,-1.61 0.55,-1.59 0.54,-1.57 0.54,-1.55 0.55,-1.53 0.54,-1.51 0.55,-1.48 0.54,-1.46 0.54,-1.44 0.55,-1.42 0.54,-1.39 0.55,-1.36 0.54,-1.34 0.55,-1.32 0.54,-1.29 0.54,-1.27 0.55,-1.23 0.54,-1.22 0.55,-1.19 0.54,-1.16 0.54,-1.13 0.55,-1.11 0.54,-1.08 0.55,-1.06 0.54,-1.03 0.54,-1.01 0.55,-0.97 0.54,-0.96 0.55,-0.93 0.54,-0.9 0.54,-0.88 0.55,-0.85 0.54,-0.83 0.55,-0.8 0.54,-0.79 0.55,-0.75 0.54,-0.74 0.54,-0.71 0.55,-0.69 0.54,-0.67 0.55,-0.64 0.54,-0.63 0.54,-0.6 0.55,-0.58 0.54,-0.57 0.55,-0.54 0.54,-0.53 0.54,-0.5 0.55,-0.49 0.54,-0.47 0.55,-0.45 0.54,-0.44 0.55,-0.41 0.54,-0.41 0.54,-0.38 0.55,-0.38 0.54,-0.35 0.55,-0.35 0.54,-0.32 0.54,-0.32 0.55,-0.3 0.54,-0.29 0.55,-0.28 0.54,-0.26 0.54,-0.26 0.55,-0.24 0.54,-0.23 0.55,-0.22 0.54,-0.21 0.54,-0.21 0.55,-0.19 0.54,-0.18 0.55,-0.18 0.54,-0.16 0.55,-0.16 0.54,-0.15 0.54,-0.15 0.55,-0.13 0.54,-0.13 0.55,-0.13 0.54,-0.12 0.54,-0.11 0.55,-0.1 0.54,-0.1 0.55,-0.1 0.54,-0.09 0.54,-0.08 0.55,-0.08 0.54,-0.08 0.55,-0.07 0.54,-0.07 0.55,-0.07 0.54,-0.06 0.54,-0.06 0.55,-0.05 0.54,-0.05 0.55,-0.05 0.54,-0.05 0.54,-0.04"
       style="fill:none;stroke:#00008b;stroke-width:1.5;stroke-linecap:round;stroke-linejoin:round;stroke-miterlimit:10;stroke-dasharray:none;stroke-opacity:1"
       id="path891"
       inkscape:connector-curvature="0" /><path
       d="m 56.93,359.7 0.54,0.13 0.54,0.13 0.55,0.14 0.54,0.14 0.55,0.15 0.54,0.15 0.54,0.15 0.55,0.16 0.54,0.16 0.55,0.16 0.54,0.17 0.54,0.17 0.55,0.18 0.54,0.18 0.55,0.18 0.54,0.19 0.55,0.19 0.54,0.2 0.54,0.2 0.55,0.21 0.54,0.21 0.55,0.22 0.54,0.22 0.54,0.23 0.55,0.23 0.54,0.23 0.55,0.25 0.54,0.24 0.54,0.25 0.55,0.26 0.54,0.26 0.55,0.27 0.54,0.27 0.54,0.28 0.55,0.29 0.54,0.29 0.55,0.29 0.54,0.3 0.55,0.31 0.54,0.31 0.54,0.32 0.55,0.33 0.54,0.33 0.55,0.33 0.54,0.35 0.54,0.34 0.55,0.36 0.54,0.36 0.55,0.37 0.54,0.37 0.54,0.38 0.55,0.38 0.54,0.4 0.55,0.39 0.54,0.41 0.55,0.41 0.54,0.42 0.54,0.42 0.55,0.43 0.54,0.44 0.55,0.44 0.54,0.45 0.54,0.45 0.55,0.47 0.54,0.46 0.55,0.48 0.54,0.48 0.54,0.49 0.55,0.49 0.54,0.5 0.55,0.51 0.54,0.51 0.54,0.52 0.55,0.52 0.54,0.53 0.55,0.54 0.54,0.54 0.55,0.55 0.54,0.55 0.54,0.56 0.55,0.57 0.54,0.57 0.55,0.58 0.54,0.58 0.54,0.59 0.55,0.59 0.54,0.6 0.55,0.61 0.54,0.61 0.54,0.61 0.55,0.62 0.54,0.62 0.55,0.63 0.54,0.63 0.55,0.64 0.54,0.64 0.54,0.65 0.55,0.64 0.54,0.66 0.55,0.65 0.54,0.66 0.54,0.67 0.55,0.67 0.54,0.67 0.55,0.67 0.54,0.67 0.54,0.68 0.55,0.68 0.54,0.69 0.55,0.68 0.54,0.69 0.54,0.69 0.55,0.68 0.54,0.7 0.55,0.69 0.54,0.69 0.55,0.69 0.54,0.7 0.54,0.69 0.55,0.7 0.54,0.69 0.55,0.69 0.54,0.7 0.54,0.69 0.55,0.69 0.54,0.69 0.55,0.69 0.54,0.68 0.54,0.69 0.55,0.68 0.54,0.68 0.55,0.67 0.54,0.68 0.55,0.67 0.54,0.66 0.54,0.67 0.55,0.66 0.54,0.65 0.55,0.65 0.54,0.65 0.54,0.64 0.55,0.63 0.54,0.63 0.55,0.63 0.54,0.61 0.54,0.62 0.55,0.6 0.54,0.6 0.55,0.59 0.54,0.59 0.54,0.58 0.55,0.56 0.54,0.57 0.55,0.55 0.54,0.55 0.55,0.53 0.54,0.53 0.54,0.52 0.55,0.51 0.54,0.5 0.55,0.49 0.54,0.48 0.54,0.47 0.55,0.46 0.54,0.45 0.55,0.44 0.54,0.43 0.54,0.42 0.55,0.4 0.54,0.4 0.55,0.38 0.54,0.37 0.55,0.36 0.54,0.34 0.54,0.34 0.55,0.32 0.54,0.31 0.55,0.3 0.54,0.28 0.54,0.27 0.55,0.26 0.54,0.24 0.55,0.23 0.54,0.22 0.54,0.21 0.55,0.19 0.54,0.17 0.55,0.17 0.54,0.15 0.54,0.13 0.55,0.12 0.54,0.11 0.55,0.09 0.54,0.08 0.55,0.06 0.54,0.05 0.54,0.04 0.55,0.02 0.54,0.01 0.55,-0.01 0.54,-0.02 0.54,-0.04 0.55,-0.05 0.54,-0.06 0.55,-0.08 0.54,-0.09 0.54,-0.11 0.55,-0.12 0.54,-0.13 0.55,-0.15 0.54,-0.17 0.55,-0.17 0.54,-0.19 0.54,-0.21 0.55,-0.22 0.54,-0.23 0.55,-0.24 0.54,-0.26 0.54,-0.27 0.55,-0.28 0.54,-0.3 0.55,-0.31 0.54,-0.32 0.54,-0.34 0.55,-0.34 0.54,-0.36 0.55,-0.37 0.54,-0.38 0.54,-0.4 0.55,-0.4 0.54,-0.42 0.55,-0.43 0.54,-0.44 0.55,-0.45 0.54,-0.46 0.54,-0.47 0.55,-0.48 0.54,-0.49 0.55,-0.5 0.54,-0.51 0.54,-0.52 0.55,-0.53 0.54,-0.53 0.55,-0.55 0.54,-0.55 0.54,-0.57 0.55,-0.56 0.54,-0.58 0.55,-0.59 0.54,-0.59 0.55,-0.6 0.54,-0.6 0.54,-0.62 0.55,-0.61 0.54,-0.63 0.55,-0.63 0.54,-0.63 0.54,-0.64 0.55,-0.65 0.54,-0.65 0.55,-0.65 0.54,-0.66 0.54,-0.67 0.55,-0.66 0.54,-0.67 0.55,-0.68 0.54,-0.67 0.54,-0.68 0.55,-0.68 0.54,-0.69 0.55,-0.68 0.54,-0.69 0.55,-0.69 0.54,-0.69 0.54,-0.69 0.55,-0.7 0.54,-0.69 0.55,-0.69 0.54,-0.7 0.54,-0.69 0.55,-0.7 0.54,-0.69 0.55,-0.69 0.54,-0.69 0.54,-0.7 0.55,-0.68 0.54,-0.69 0.55,-0.69 0.54,-0.68 0.55,-0.69 0.54,-0.68 0.54,-0.68 0.55,-0.67 0.54,-0.67 0.55,-0.67 0.54,-0.67 0.54,-0.67 0.55,-0.66 0.54,-0.65 0.55,-0.66 0.54,-0.64 0.54,-0.65 0.55,-0.64 0.54,-0.64 0.55,-0.63 0.54,-0.63 0.54,-0.62 0.55,-0.62 0.54,-0.61 0.55,-0.61 0.54,-0.61 0.55,-0.6 0.54,-0.59 0.54,-0.59 0.55,-0.58 0.54,-0.58 0.55,-0.57 0.54,-0.57 0.54,-0.56 0.55,-0.55 0.54,-0.55 0.55,-0.54 0.54,-0.54 0.54,-0.53 0.55,-0.52 0.54,-0.52 0.55,-0.51 0.54,-0.51 0.55,-0.5 0.54,-0.49 0.54,-0.49 0.55,-0.48 0.54,-0.48 0.55,-0.46 0.54,-0.47 0.54,-0.45 0.55,-0.45 0.54,-0.44 0.55,-0.44 0.54,-0.43 0.54,-0.42 0.55,-0.42 0.54,-0.41 0.55,-0.41 0.54,-0.39 0.54,-0.4 0.55,-0.38 0.54,-0.38 0.55,-0.37 0.54,-0.37 0.55,-0.36 0.54,-0.36 0.54,-0.34 0.55,-0.35 0.54,-0.33 0.55,-0.33 0.54,-0.33 0.54,-0.32 0.55,-0.31 0.54,-0.31 0.55,-0.3 0.54,-0.29 0.54,-0.29 0.55,-0.29"
       style="fill:none;stroke:#fa8072;stroke-width:1.5;stroke-linecap:round;stroke-linejoin:round;stroke-miterlimit:10;stroke-dasharray:4.5, 7.5;stroke-dashoffset:0;stroke-opacity:1"
       id="path893"
       inkscape:connector-curvature="0" /><path
       d="m 84.13,359.7 0.54,0.13 0.55,0.13 0.54,0.14 0.55,0.14 0.54,0.15 0.55,0.15 0.54,0.15 0.54,0.16 0.55,0.16 0.54,0.16 0.55,0.17 0.54,0.17 0.54,0.18 0.55,0.18 0.54,0.18 0.55,0.19 0.54,0.19 0.54,0.2 0.55,0.2 0.54,0.21 0.55,0.21 0.54,0.22 0.54,0.22 0.55,0.23 0.54,0.23 0.55,0.23 0.54,0.25 0.55,0.24 0.54,0.25 0.54,0.26 0.55,0.26 0.54,0.27 0.55,0.27 0.54,0.28 0.54,0.29 0.55,0.29 0.54,0.29 0.55,0.3 0.54,0.31 0.54,0.31 0.55,0.32 0.54,0.33 0.55,0.33 0.54,0.33 0.55,0.35 0.54,0.34 0.54,0.36 0.55,0.36 0.54,0.37 0.55,0.37 0.54,0.38 0.54,0.38 0.55,0.4 0.54,0.39 0.55,0.41 0.54,0.41 0.54,0.42 0.55,0.42 0.54,0.43 0.55,0.44 0.54,0.44 0.54,0.45 0.55,0.45 0.54,0.47 0.55,0.46 0.54,0.48 0.55,0.48 0.54,0.49 0.54,0.49 0.55,0.5 0.54,0.51 0.55,0.51 0.54,0.52 0.54,0.52 0.55,0.53 0.54,0.54 0.55,0.54 0.54,0.55 0.54,0.55 0.55,0.56 0.54,0.57 0.55,0.57 0.54,0.58 0.55,0.58 0.54,0.59 0.54,0.59 0.55,0.6 0.54,0.61 0.55,0.61 0.54,0.61 0.54,0.62 0.55,0.62 0.54,0.63 0.55,0.63 0.54,0.64 0.54,0.64 0.55,0.65 0.54,0.64 0.55,0.66 0.54,0.65 0.54,0.66 0.55,0.67 0.54,0.67 0.55,0.67 0.54,0.67 0.55,0.67 0.54,0.68 0.54,0.68 0.55,0.69 0.54,0.68 0.55,0.69 0.54,0.69 0.54,0.68 0.55,0.7 0.54,0.69 0.55,0.69 0.54,0.69 0.54,0.7 0.55,0.69 0.54,0.7 0.55,0.69 0.54,0.69 0.55,0.7 0.54,0.69 0.54,0.69 0.55,0.69 0.54,0.69 0.55,0.68 0.54,0.69 0.54,0.68 0.55,0.68 0.54,0.67 0.55,0.68 0.54,0.67 0.54,0.66 0.55,0.67 0.54,0.66 0.55,0.65 0.54,0.65 0.54,0.65 0.55,0.64 0.54,0.63 0.55,0.63 0.54,0.63 0.55,0.61 0.54,0.62 0.54,0.6 0.55,0.6 0.54,0.59 0.55,0.59 0.54,0.58 0.54,0.56 0.55,0.57 0.54,0.55 0.55,0.55 0.54,0.53 0.54,0.53 0.55,0.52 0.54,0.51 0.55,0.5 0.54,0.49 0.55,0.48 0.54,0.47 0.54,0.46 0.55,0.45 0.54,0.44 0.55,0.43 0.54,0.42 0.54,0.4 0.55,0.4 0.54,0.38 0.55,0.37 0.54,0.36 0.54,0.34 0.55,0.34 0.54,0.32 0.55,0.31 0.54,0.3 0.54,0.28 0.55,0.27 0.54,0.26 0.55,0.24 0.54,0.23 0.55,0.22 0.54,0.21 0.54,0.19 0.55,0.17 0.54,0.17 0.55,0.15 0.54,0.13 0.54,0.12 0.55,0.11 0.54,0.09 0.55,0.08 0.54,0.06 0.54,0.05 0.55,0.04 0.54,0.02 0.55,0.01 0.54,-0.01 0.55,-0.02 0.54,-0.04 0.54,-0.05 0.55,-0.06 0.54,-0.08 0.55,-0.09 0.54,-0.11 0.54,-0.12 0.55,-0.13 0.54,-0.15 0.55,-0.17 0.54,-0.17 0.54,-0.19 0.55,-0.21 0.54,-0.22 0.55,-0.23 0.54,-0.24 0.54,-0.26 0.55,-0.27 0.54,-0.28 0.55,-0.3 0.54,-0.31 0.55,-0.32 0.54,-0.34 0.54,-0.34 0.55,-0.36 0.54,-0.37 0.55,-0.38 0.54,-0.4 0.54,-0.4 0.55,-0.42 0.54,-0.43 0.55,-0.44 0.54,-0.45 0.54,-0.46 0.55,-0.47 0.54,-0.48 0.55,-0.49 0.54,-0.5 0.55,-0.51 0.54,-0.52 0.54,-0.53 0.55,-0.53 0.54,-0.55 0.55,-0.55 0.54,-0.57 0.54,-0.56 0.55,-0.58 0.54,-0.59 0.55,-0.59 0.54,-0.6 0.54,-0.6 0.55,-0.62 0.54,-0.61 0.55,-0.63 0.54,-0.63 0.54,-0.63 0.55,-0.64 0.54,-0.65 0.55,-0.65 0.54,-0.65 0.55,-0.66 0.54,-0.67 0.54,-0.66 0.55,-0.67 0.54,-0.68 0.55,-0.67 0.54,-0.68 0.54,-0.68 0.55,-0.69 0.54,-0.68 0.55,-0.69 0.54,-0.69 0.54,-0.69 0.55,-0.69 0.54,-0.7 0.55,-0.69 0.54,-0.69 0.55,-0.7 0.54,-0.69 0.54,-0.7 0.55,-0.69 0.54,-0.69 0.55,-0.69 0.54,-0.7 0.54,-0.68 0.55,-0.69 0.54,-0.69 0.55,-0.68 0.54,-0.69 0.54,-0.68 0.55,-0.68 0.54,-0.67 0.55,-0.67 0.54,-0.67 0.54,-0.67 0.55,-0.67 0.54,-0.66 0.55,-0.65 0.54,-0.66 0.55,-0.64 0.54,-0.65 0.54,-0.64 0.55,-0.64 0.54,-0.63 0.55,-0.63 0.54,-0.62 0.54,-0.62 0.55,-0.61 0.54,-0.61 0.55,-0.61 0.54,-0.6 0.54,-0.59 0.55,-0.59 0.54,-0.58 0.55,-0.58 0.54,-0.57 0.55,-0.57 0.54,-0.56 0.54,-0.55 0.55,-0.55 0.54,-0.54 0.55,-0.54 0.54,-0.53 0.54,-0.52 0.55,-0.52 0.54,-0.51 0.55,-0.51 0.54,-0.5 0.54,-0.49 0.55,-0.49 0.54,-0.48 0.55,-0.48 0.54,-0.46 0.54,-0.47 0.55,-0.45 0.54,-0.45 0.55,-0.44 0.54,-0.44 0.55,-0.43 0.54,-0.42 0.54,-0.42 0.55,-0.41 0.54,-0.41 0.55,-0.39 0.54,-0.4 0.54,-0.38 0.55,-0.38 0.54,-0.37 0.55,-0.37 0.54,-0.36 0.54,-0.36 0.55,-0.34 0.54,-0.35 0.55,-0.33 0.54,-0.33 0.55,-0.33 0.54,-0.32 0.54,-0.31 0.55,-0.31 0.54,-0.3 0.55,-0.29 0.54,-0.29 0.54,-0.29"
       style="fill:none;stroke:#fa8072;stroke-width:1.5;stroke-linecap:round;stroke-linejoin:round;stroke-miterlimit:10;stroke-dasharray:none;stroke-opacity:1"
       id="path895"
       inkscape:connector-curvature="0" /><path
       d="m 121.67,519.47 h 87.06"
       style="fill:none;stroke:#fa8072;stroke-width:1.5;stroke-linecap:round;stroke-linejoin:round;stroke-miterlimit:10;stroke-dasharray:4.5, 7.5;stroke-dashoffset:0;stroke-opacity:1"
       id="path905"
       inkscape:connector-curvature="0" /><path
       d="m 162.51,519.47 c 0,1.48 1.21,2.69 2.69,2.69 1.48,0 2.69,-1.21 2.69,-2.69 0,-1.48 -1.21,-2.69 -2.69,-2.69 -1.48,0 -2.69,1.21 -2.69,2.69"
       style="fill:#fa8072;fill-opacity:1;fill-rule:nonzero;stroke:#000000;stroke-width:0.75;stroke-linecap:round;stroke-linejoin:round;stroke-miterlimit:10;stroke-dasharray:none;stroke-opacity:1"
       id="path907"
       inkscape:connector-curvature="0" /><path
       d="m 148.88,513.29 h 87.06"
       style="fill:none;stroke:#fa8072;stroke-width:1.5;stroke-linecap:round;stroke-linejoin:round;stroke-miterlimit:10;stroke-dasharray:none;stroke-opacity:1"
       id="path909"
       inkscape:connector-curvature="0" /><path
       d="m 189.72,513.29 c 0,1.48 1.21,2.69 2.69,2.69 1.48,0 2.69,-1.21 2.69,-2.69 0,-1.48 -1.21,-2.69 -2.69,-2.69 -1.48,0 -2.69,1.21 -2.69,2.69"
       style="fill:#fa8072;fill-opacity:1;fill-rule:nonzero;stroke:#000000;stroke-width:0.75;stroke-linecap:round;stroke-linejoin:round;stroke-miterlimit:10;stroke-dasharray:none;stroke-opacity:1"
       id="path911"
       inkscape:connector-curvature="0" /></g><path
     d="m 138,545.9 h 54.41"
     style="fill:none;stroke:#00008b;stroke-width:1.5;stroke-linecap:round;stroke-linejoin:round;stroke-miterlimit:10;stroke-dasharray:4.5, 7.5;stroke-dashoffset:0;stroke-opacity:1"
     id="path897"
     inkscape:connector-curvature="0" /><path
     d="m 165.2,539.72 h 54.41"
     style="fill:none;stroke:#00008b;stroke-width:1.5;stroke-linecap:round;stroke-linejoin:round;stroke-miterlimit:10;stroke-dasharray:none;stroke-opacity:1"
     id="path901"
     inkscape:connector-curvature="0" /><path
     d="m 162.51,545.9 c 0,1.48 1.21,2.69 2.69,2.69 1.48,0 2.69,-1.21 2.69,-2.69 0,-1.48 -1.21,-2.69 -2.69,-2.69 -1.48,0 -2.69,1.21 -2.69,2.69"
     style="fill:#00008b;fill-opacity:1;fill-rule:nonzero;stroke:#000000;stroke-width:0.75;stroke-linecap:round;stroke-linejoin:round;stroke-miterlimit:10;stroke-dasharray:none;stroke-opacity:1"
     id="path899"
     inkscape:connector-curvature="0" /><path
     d="m 189.72,539.72 c 0,1.48 1.21,2.69 2.69,2.69 1.48,0 2.69,-1.21 2.69,-2.69 0,-1.48 -1.21,-2.69 -2.69,-2.69 -1.48,0 -2.69,1.21 -2.69,2.69"
     style="fill:#00008b;fill-opacity:1;fill-rule:nonzero;stroke:#000000;stroke-width:0.75;stroke-linecap:round;stroke-linejoin:round;stroke-miterlimit:10;stroke-dasharray:none;stroke-opacity:1"
     id="path903"
     inkscape:connector-curvature="0" /></g><g
   clip-path="url(#clipPath929)"
   id="g925"
   transform="translate(-3.7500001e-8,25.5)"><path
   inkscape:connector-curvature="0"
   id="path931"
   style="fill:none;stroke:#00008b;stroke-width:1.5;stroke-linecap:round;stroke-linejoin:round;stroke-miterlimit:10;stroke-dasharray:4.5, 7.5;stroke-dashoffset:0;stroke-opacity:1"
   d="M 50.47,495.54 H 68.4" /><path
   inkscape:connector-curvature="0"
   id="path933"
   style="fill:none;stroke:#00008b;stroke-width:1.5;stroke-linecap:round;stroke-linejoin:round;stroke-miterlimit:10;stroke-dasharray:none;stroke-opacity:1"
   d="M 50.47,486.59 H 68.4" /><text
   id="text937"
   style="font-variant:normal;font-weight:normal;font-size:10px;font-family:Helvetica;-inkscape-font-specification:Helvetica;writing-mode:lr-tb;fill:#000000;fill-opacity:1;fill-rule:nonzero;stroke:none"
   transform="scale(1,-1)"
   x="77.360001"
   y="-491.95001"><tspan
     id="tspan935"
     sodipodi:role="line"
     y="-491.95001"
     x="77.360001 82.919998 88.480003 93.480003">past</tspan></text>

<text
   id="text941"
   style="font-variant:normal;font-weight:normal;font-size:10px;font-family:Helvetica;-inkscape-font-specification:Helvetica;writing-mode:lr-tb;fill:#000000;fill-opacity:1;fill-rule:nonzero;stroke:none"
   transform="scale(1,-1)"
   x="77.360001"
   y="-483"><tspan
     id="tspan939"
     sodipodi:role="line"
     y="-483"
     x="77.360001 82.919998 86.25 91.809998 96.809998 102.37 107.93">present</tspan></text>

<path
   inkscape:connector-curvature="0"
   id="path947"
   style="opacity:0.83999999;fill:none;stroke:#fa8072;stroke-width:2.34975006;stroke-linecap:round;stroke-linejoin:round;stroke-miterlimit:10;stroke-dasharray:none;stroke-opacity:1"
   d="m 165.2,500.64 h 27.21" /><path
   inkscape:connector-curvature="0"
   id="path949"
   style="opacity:0.83999999;fill:none;stroke:#fa8072;stroke-width:3.48377967;stroke-linecap:round;stroke-linejoin:round;stroke-miterlimit:10;stroke-dasharray:none;stroke-opacity:1"
   d="m 189.86,498.09 2.55,2.55 -2.55,2.55" /><text
   id="text957"
   style="font-variant:normal;font-weight:normal;font-size:10px;font-family:Helvetica;-inkscape-font-specification:Helvetica;writing-mode:lr-tb;fill:#000000;fill-opacity:1;fill-rule:nonzero;stroke:none"
   transform="scale(1,-1)"
   x="220.69539"
   y="-496.27206"><tspan
     id="tspan955"
     sodipodi:role="line"
     y="-496.27206"
     x="220.69539 226.2554 229.5854 234.94539 239.9454 242.7254 247.7254 253.2854 255.5054 258.2854"
     style="-inkscape-font-specification:'Helvetica, Normal';font-family:Helvetica;font-weight:normal;font-style:normal;font-stretch:normal;font-variant:normal;font-size:12.0000003px;text-anchor:start;text-align:start;writing-mode:lr;font-variant-ligatures:normal;font-variant-caps:normal;font-variant-numeric:normal;font-feature-settings:normal;fill:#fa8072;fill-opacity:1">prey shift</tspan></text>

</g><g
   id="g913"
   transform="translate(-7.5,-3)"><text
   transform="matrix(1,0,0,-1,49,565.24)"
   style="font-variant:normal;font-weight:normal;font-size:14px;font-family:Helvetica;-inkscape-font-specification:Helvetica;writing-mode:lr-tb;fill:#000000;fill-opacity:1;fill-rule:nonzero;stroke:none"
   id="text917"><tspan
     x="0 11.662 19.445999 23.337999 30.337999 38.122002 45.905998 53.689999 57.582001 65.365997 73.150002 80.933998 88.718002 96.501999 99.610001 107.394 115.178 118.286 125.286 133.07001 136.17799 140.07001 147.07001 154.854 157.96201 161.854 165.746 172.746"
     y="0"
     sodipodi:role="line"
     id="tspan915">Matched phenological shifts:</tspan></text>

<text
   transform="scale(1,-1)"
   style="font-variant:normal;font-weight:normal;font-size:14px;font-family:Helvetica;-inkscape-font-specification:Helvetica;writing-mode:lr-tb;fill:#000000;fill-opacity:1;fill-rule:nonzero;stroke:none"
   id="text921"
   x="41.5"
   y="-541.34003"><tspan
     x="41.5 50.838001"
     y="-541.34003"
     sodipodi:role="line"
     id="tspan919">A)</tspan></text>

</g><g
   id="g959"><g
     id="g961"
     clip-path="url(#clipPath965)"><path
       d="m 344.93,355.55 0.54,0.45 0.54,0.46 0.55,0.45 0.54,0.45 0.55,0.45 0.54,0.46 0.54,0.45 0.55,0.45 0.54,0.46 0.55,0.45 0.54,0.45 0.54,0.45 0.55,0.46 0.54,0.45 0.55,0.45 0.54,0.46 0.55,0.45 0.54,0.45 0.54,0.45 0.55,0.46 0.54,0.45 0.55,0.45 0.54,0.46 0.54,0.45 0.55,0.45 0.54,0.45 0.55,0.46 0.54,0.45 0.54,0.45 0.55,0.46 0.54,0.45 0.55,0.45 0.54,0.45 0.54,0.46 0.55,0.45 0.54,0.45 0.55,0.46 0.54,0.45 0.55,0.45 0.54,0.46 0.54,0.45 0.55,0.45 0.54,0.45 0.55,0.46 0.54,0.45 0.54,0.45 0.55,0.46 0.54,0.45 0.55,0.45 0.54,0.45 0.54,0.46 0.55,0.45 0.54,0.45 0.55,0.46 0.54,0.45 0.55,0.45 0.54,0.45 0.54,0.46 0.55,0.45 0.54,0.45 0.55,0.46 0.54,0.45 0.54,0.45 0.55,0.45 0.54,0.46 0.55,0.45 0.54,0.45 0.54,0.46 0.55,0.45 0.54,0.45 0.55,0.45 0.54,0.46 0.54,0.45 0.55,0.45 0.54,0.46 0.55,0.45 0.54,0.45 0.55,0.46 0.54,0.45 0.54,0.45 0.55,0.45 0.54,0.46 0.55,0.45 0.54,0.45 0.54,0.46 0.55,0.45 0.54,0.45 0.55,0.45 0.54,0.46 0.54,0.45 0.55,0.45 0.54,0.46 0.55,0.45 0.54,0.45 0.55,0.45 0.54,0.46 0.54,0.45 0.55,0.45 0.54,0.46 0.55,0.45 0.54,0.45 0.54,0.45 0.55,0.46 0.54,0.45 0.55,0.45 0.54,0.46 0.54,0.45 0.55,0.45 0.54,0.45 0.55,0.46 0.54,0.45 0.54,0.45 0.55,0.46 0.54,0.45 0.55,0.45 0.54,0.46 0.55,0.45 0.54,0.45 0.54,0.45 0.55,0.46 0.54,0.45 0.55,0.45 0.54,0.46 0.54,0.45 0.55,0.45 0.54,0.45 0.55,0.46 0.54,0.45 0.54,0.45 0.55,0.46 0.54,0.45 0.55,0.45 0.54,0.45 0.55,0.46 0.54,0.45 0.54,0.45 0.55,0.46 0.54,0.45 0.55,0.45 0.54,0.45 0.54,0.46 0.55,0.45 0.54,0.45 0.55,0.46 0.54,0.45 0.54,0.45 0.55,0.45 0.54,0.46 0.55,0.45 0.54,0.45 0.54,0.46 0.55,0.45 0.54,0.45 0.55,0.45 0.54,0.46 0.55,0.45 0.54,0.45 0.54,0.46 0.55,0.45 0.54,0.45 0.55,0.46 0.54,0.45 0.54,0.45 0.55,0.45 0.54,0.46 0.55,0.45 0.54,0.45 0.54,0.46 0.55,0.45 0.54,0.45 0.55,0.45 0.54,0.46 0.55,0.45 0.54,0.45 0.54,0.46 0.55,0.45 0.54,0.45 0.55,0.45 0.54,0.46 0.54,0.45 0.55,0.45 0.54,0.46 0.55,0.45 0.54,0.45 0.54,0.45 0.55,0.46 0.54,0.45 0.55,0.45 0.54,0.46 0.54,0.45 0.55,0.45 0.54,0.45 0.55,0.46 0.54,0.45 0.55,0.45 0.54,0.46 0.54,0.45 0.55,0.45 0.54,0.46 0.55,0.45 0.54,0.45 0.54,0.45 0.55,0.46 0.54,0.45 0.55,0.45 0.54,0.46 0.54,0.45 0.55,0.45 0.54,0.45 0.55,0.46 0.54,0.45 0.55,0.45 0.54,0.46 0.54,0.45 0.55,0.45 0.54,0.45 0.55,0.46 0.54,0.45 0.54,0.45 0.55,0.46 0.54,0.45 0.55,0.45 0.54,0.45 0.54,0.46 0.55,0.45 0.54,0.45 0.55,0.46 0.54,0.45 0.54,0.45 0.55,0.45 0.54,0.46 0.55,0.45 0.54,0.45 0.55,0.46 0.54,0.45 0.54,0.45 0.55,0.46 0.54,0.45 0.55,0.45 0.54,0.45 0.54,0.46 0.55,0.45 0.54,0.45 0.55,0.46 0.54,0.45 0.54,0.45 0.55,0.45 0.54,0.46 0.55,0.45 0.54,0.45 0.55,0.46 0.54,0.45 0.54,0.45 0.55,0.45 0.54,0.46 0.55,0.45 0.54,0.45 0.54,0.46 0.55,0.45 0.54,0.45 0.55,0.45 0.54,0.46 0.54,0.45 0.55,0.45 0.54,0.46 0.55,0.45 0.54,0.45 0.54,0.45 0.55,0.46 0.54,0.45 0.55,0.45 0.54,0.46 0.55,0.45 0.54,0.45 0.54,0.46 0.55,0.45 0.54,0.45 0.55,0.45 0.54,0.46 0.54,0.45 0.55,0.45 0.54,0.46 0.55,0.45 0.54,0.45 0.54,0.45 0.55,0.46 0.54,0.45 0.55,0.45 0.54,0.46 0.55,0.45 0.54,0.45 0.54,0.45 0.55,0.46 0.54,0.45 0.55,0.45 0.54,0.46 0.54,0.45 0.55,0.45 0.54,0.45 0.55,0.46 0.54,0.45 0.54,0.45 0.55,0.46 0.54,0.45 0.55,0.45 0.54,0.45 0.54,0.46 0.55,0.45 0.54,0.45 0.55,0.46 0.54,0.45 0.55,0.45 0.54,0.46 0.54,0.45 0.55,0.45 0.54,0.45 0.55,0.46 0.54,0.45 0.54,0.45 0.55,0.46 0.54,0.45 0.55,0.45 0.54,0.45 0.54,0.46 0.55,0.45 0.54,0.45 0.55,0.46 0.54,0.45 0.55,0.45 0.54,0.45 0.54,0.46 0.55,0.45 0.54,0.45 0.55,0.46 0.54,0.45 0.54,0.45 0.55,0.45 0.54,0.46 0.55,0.45 0.54,0.45 0.54,0.46 0.55,0.45 0.54,0.45 0.55,0.45 0.54,0.46 0.54,0.45 0.55,0.45 0.54,0.46 0.55,0.45 0.54,0.45 0.55,0.46 0.54,0.45 0.54,0.45 0.55,0.45 0.54,0.46 0.55,0.45 0.54,0.45 0.54,0.46 0.55,0.45 0.54,0.45 0.55,0.45 0.54,0.46 0.54,0.45 0.55,0.45"
       style="fill:none;stroke:#000000;stroke-width:1.5;stroke-linecap:round;stroke-linejoin:round;stroke-miterlimit:10;stroke-dasharray:none;stroke-opacity:1"
       id="path967"
       inkscape:connector-curvature="0" /></g></g><g
   id="g969"><path
   d="M 344.38,348.96 H 507.61"
   style="fill:none;stroke:#000000;stroke-width:0.75;stroke-linecap:round;stroke-linejoin:round;stroke-miterlimit:10;stroke-dasharray:none;stroke-opacity:1"
   id="path971"
   inkscape:connector-curvature="0" />



<path
   d="M 337,355.1 V 490.96"
   style="fill:none;stroke:#000000;stroke-width:0.75;stroke-linecap:round;stroke-linejoin:round;stroke-miterlimit:10;stroke-dasharray:none;stroke-opacity:1"
   id="path997"
   inkscape:connector-curvature="0" />



<path
   d="M 337,527 V 348.96 h 213.9"
   style="fill:none;stroke:#000000;stroke-width:0.75;stroke-linecap:round;stroke-linejoin:round;stroke-miterlimit:10;stroke-dasharray:none;stroke-opacity:1"
   id="path1023"
   inkscape:connector-curvature="0" /></g><g
   id="g1025"><g
     id="g1027"
     clip-path="url(#clipPath1031)"><text
   transform="scale(1,-1)"
   style="font-variant:normal;font-weight:normal;font-size:15px;font-family:Helvetica;-inkscape-font-specification:Helvetica;writing-mode:lr-tb;fill:#000000;fill-opacity:1;fill-rule:nonzero;stroke:none"
   id="text1035"
   x="397.22"
   y="-315.54001"><tspan
     x="397.22 405.56 413.89999 422.23999 429.73999 433.91 442.25 447.245 455.285 462.785 466.95499 475.29498 483.185"
     y="-315.54001"
     sodipodi:role="line"
     id="tspan1033">peak prey day</tspan></text>

<text
   transform="matrix(0,1,1,0,0,0)"
   style="font-variant:normal;font-weight:normal;font-size:15px;font-family:Helvetica;-inkscape-font-specification:Helvetica;writing-mode:lr-tb;fill:#000000;fill-opacity:1;fill-rule:nonzero;stroke:none"
   id="text1039"
   x="377.75"
   y="310.76001"><tspan
     x="377.75 386.09 394.42999 402.76999 410.26999 414.44 422.78 427.77499 436.11499 444.45502 452.79498 456.965 465.30499 470.29999 474.47 482.81 490.70001"
     y="310.76001"
     sodipodi:role="line"
     id="tspan1037">peak predator day</tspan></text>

</g></g><g
   id="g1041"
   transform="translate(-15)"><text
   transform="matrix(1,0,0,-1,337,541.34)"
   style="font-variant:normal;font-weight:normal;font-size:14px;font-family:Helvetica;-inkscape-font-specification:Helvetica;writing-mode:lr-tb;fill:#000000;fill-opacity:1;fill-rule:nonzero;stroke:none"
   id="text1045"><tspan
     x="0 9.3380003"
     y="0"
     sodipodi:role="line"
     id="tspan1043">B)</tspan></text>

</g><g
   id="g1047"><g
     id="g1049"
     clip-path="url(#clipPath1053)"><path
       d="m 56.93,67.6 0.54,0.01 h 0.54 l 0.55,0.01 h 0.54 l 0.55,0.01 h 0.54 l 0.54,0.01 0.55,0.01 0.54,0.01 h 0.55 l 0.54,0.01 0.54,0.01 0.55,0.01 0.54,0.02 0.55,0.01 0.54,0.01 0.55,0.01 0.54,0.02 0.54,0.01 0.55,0.02 0.54,0.02 0.55,0.02 0.54,0.02 0.54,0.02 0.55,0.02 0.54,0.03 0.55,0.02 0.54,0.03 0.54,0.03 0.55,0.03 0.54,0.04 0.55,0.03 0.54,0.04 0.54,0.04 0.55,0.04 0.54,0.05 0.55,0.05 0.54,0.05 0.55,0.05 0.54,0.06 0.54,0.06 0.55,0.07 0.54,0.07 0.55,0.07 0.54,0.08 0.54,0.08 0.55,0.08 0.54,0.09 0.55,0.1 0.54,0.1 0.54,0.1 0.55,0.11 0.54,0.12 0.55,0.13 0.54,0.13 0.55,0.13 0.54,0.15 0.54,0.15 0.55,0.16 0.54,0.16 0.55,0.18 0.54,0.18 0.54,0.19 0.55,0.21 0.54,0.21 0.55,0.22 0.54,0.23 0.54,0.24 0.55,0.26 0.54,0.26 0.55,0.28 0.54,0.29 0.54,0.3 0.55,0.32 0.54,0.32 0.55,0.35 0.54,0.35 0.55,0.38 0.54,0.38 0.54,0.41 0.55,0.41 0.54,0.44 0.55,0.45 0.54,0.47 0.54,0.49 0.55,0.5 0.54,0.53 0.55,0.54 0.54,0.57 0.54,0.58 0.55,0.6 0.54,0.63 0.55,0.64 0.54,0.67 0.55,0.69 0.54,0.71 0.54,0.74 0.55,0.75 0.54,0.79 0.55,0.8 0.54,0.83 0.54,0.85 0.55,0.88 0.54,0.9 0.55,0.93 0.54,0.96 0.54,0.97 0.55,1.01 0.54,1.03 0.55,1.06 0.54,1.08 0.54,1.11 0.55,1.13 0.54,1.16 0.55,1.19 0.54,1.22 0.55,1.23 0.54,1.27 0.54,1.29 0.55,1.32 0.54,1.34 0.55,1.36 0.54,1.39 0.54,1.42 0.55,1.44 0.54,1.46 0.55,1.48 0.54,1.51 0.54,1.53 0.55,1.55 0.54,1.57 0.55,1.59 0.54,1.61 0.55,1.63 0.54,1.64 0.54,1.66 0.55,1.68 0.54,1.69 0.55,1.71 0.54,1.71 0.54,1.73 0.55,1.74 0.54,1.75 0.55,1.76 0.54,1.76 0.54,1.77 0.55,1.77 0.54,1.78 0.55,1.77 0.54,1.78 0.54,1.77 0.55,1.78 0.54,1.76 0.55,1.77 0.54,1.75 0.55,1.75 0.54,1.73 0.54,1.73 0.55,1.71 0.54,1.69 0.55,1.68 0.54,1.66 0.54,1.63 0.55,1.62 0.54,1.59 0.55,1.57 0.54,1.54 0.54,1.52 0.55,1.48 0.54,1.45 0.55,1.42 0.54,1.39 0.55,1.35 0.54,1.31 0.54,1.27 0.55,1.24 0.54,1.19 0.55,1.15 0.54,1.1 0.54,1.06 0.55,1.01 0.54,0.97 0.55,0.91 0.54,0.87 0.54,0.81 0.55,0.76 0.54,0.71 0.55,0.66 0.54,0.6 0.54,0.55 0.55,0.49 0.54,0.43 0.55,0.38 0.54,0.32 0.55,0.26 0.54,0.21 0.54,0.15 0.55,0.08 0.54,0.03 0.55,-0.03 0.54,-0.08 0.54,-0.15 0.55,-0.21 0.54,-0.26 0.55,-0.32 0.54,-0.38 0.54,-0.43 0.55,-0.49 0.54,-0.55 0.55,-0.6 0.54,-0.66 0.55,-0.71 0.54,-0.76 0.54,-0.81 0.55,-0.87 0.54,-0.91 0.55,-0.97 0.54,-1.01 0.54,-1.06 0.55,-1.1 0.54,-1.15 0.55,-1.19 0.54,-1.24 0.54,-1.27 0.55,-1.31 0.54,-1.35 0.55,-1.39 0.54,-1.42 0.54,-1.45 0.55,-1.48 0.54,-1.52 0.55,-1.54 0.54,-1.57 0.55,-1.59 0.54,-1.62 0.54,-1.63 0.55,-1.66 0.54,-1.68 0.55,-1.69 0.54,-1.71 0.54,-1.73 0.55,-1.73 0.54,-1.75 0.55,-1.75 0.54,-1.77 0.54,-1.76 0.55,-1.78 0.54,-1.77 0.55,-1.78 0.54,-1.77 0.55,-1.78 0.54,-1.77 0.54,-1.77 0.55,-1.76 0.54,-1.76 0.55,-1.75 0.54,-1.74 0.54,-1.73 0.55,-1.71 0.54,-1.71 0.55,-1.69 0.54,-1.68 0.54,-1.66 0.55,-1.64 0.54,-1.63 0.55,-1.61 0.54,-1.59 0.54,-1.57 0.55,-1.55 0.54,-1.53 0.55,-1.51 0.54,-1.48 0.55,-1.46 0.54,-1.44 0.54,-1.42 0.55,-1.39 0.54,-1.36 0.55,-1.34 0.54,-1.32 0.54,-1.29 0.55,-1.27 0.54,-1.23 0.55,-1.22 0.54,-1.19 0.54,-1.16 0.55,-1.13 0.54,-1.11 0.55,-1.08 0.54,-1.06 0.55,-1.03 0.54,-1.01 0.54,-0.97 0.55,-0.96 0.54,-0.93 0.55,-0.9 0.54,-0.88 0.54,-0.85 0.55,-0.83 0.54,-0.8 0.55,-0.79 0.54,-0.75 0.54,-0.74 0.55,-0.71 0.54,-0.69 0.55,-0.67 0.54,-0.64 0.54,-0.63 0.55,-0.6 0.54,-0.58 0.55,-0.57 0.54,-0.54 0.55,-0.53 0.54,-0.5 0.54,-0.49 0.55,-0.47 0.54,-0.45 0.55,-0.44 0.54,-0.41 0.54,-0.41 0.55,-0.38 0.54,-0.38 0.55,-0.35 0.54,-0.35 0.54,-0.32 0.55,-0.32 0.54,-0.3 0.55,-0.29 0.54,-0.28 0.55,-0.26 0.54,-0.26 0.54,-0.24 0.55,-0.23 0.54,-0.22 0.55,-0.21 0.54,-0.21 0.54,-0.19 0.55,-0.18 0.54,-0.18 0.55,-0.16 0.54,-0.16 0.54,-0.15 0.55,-0.15 0.54,-0.13 0.55,-0.13 0.54,-0.13 0.54,-0.12 0.55,-0.11 0.54,-0.1 0.55,-0.1 0.54,-0.1 0.55,-0.09 0.54,-0.08 0.54,-0.08 0.55,-0.08 0.54,-0.07 0.55,-0.07 0.54,-0.07 0.54,-0.06 0.55,-0.06 0.54,-0.05 0.55,-0.05 0.54,-0.05 0.54,-0.05 0.55,-0.04"
       style="fill:none;stroke:#00008b;stroke-width:1.5;stroke-linecap:round;stroke-linejoin:round;stroke-miterlimit:10;stroke-dasharray:4.5, 7.5;stroke-dashoffset:0;stroke-opacity:1"
       id="path1055"
       inkscape:connector-curvature="0" /></g></g><g
   id="g1057"><path
   d="M 56.38,60.96 H 219.61"
   style="fill:none;stroke:#000000;stroke-width:0.75;stroke-linecap:round;stroke-linejoin:round;stroke-miterlimit:10;stroke-dasharray:none;stroke-opacity:1"
   id="path1059"
   inkscape:connector-curvature="0" />



<path
   d="M 49,239 V 60.96 h 213.9"
   style="fill:none;stroke:#000000;stroke-width:0.75;stroke-linecap:round;stroke-linejoin:round;stroke-miterlimit:10;stroke-dasharray:none;stroke-opacity:1"
   id="path1085"
   inkscape:connector-curvature="0" /></g><g
   id="g1087"><g
     id="g1089"
     clip-path="url(#clipPath1093)"><text
   transform="scale(1,-1)"
   style="font-variant:normal;font-weight:normal;font-size:15px;font-family:Helvetica;-inkscape-font-specification:Helvetica;writing-mode:lr-tb;fill:#000000;fill-opacity:1;fill-rule:nonzero;stroke:none"
   id="text1097"
   x="119.22"
   y="-27.540001"><tspan
     x="119.22 127.56 135.45 142.95 147.12 155.46001 159.63 163.8 171 179.34 187.67999"
     y="-27.540001"
     sodipodi:role="line"
     id="tspan1095">day of year</tspan></text>

<text
   transform="matrix(0,1,1,0,0,0)"
   style="font-variant:normal;font-weight:normal;font-size:15px;font-family:Helvetica;-inkscape-font-specification:Helvetica;writing-mode:lr-tb;fill:#000000;fill-opacity:1;fill-rule:nonzero;stroke:none"
   id="text1101"
   x="76.620003"
   y="33.260002"><tspan
     x="76.620003 84.959999 92.459999 99.959999 108.3 113.295 118.29 126.63 134.97 142.47 150.81 154.98 163.31999 168.315 176.655 184.995 193.33499 201.675 205.00499 208.33499 211.66499 215.83499"
     y="33.260002"
     sodipodi:role="line"
     id="tspan1099">occurrence probability</tspan></text>

</g></g><g
   id="g1103"><g
     id="g1105"
     clip-path="url(#clipPath1109)"><path
       d="m 62.37,67.6 0.54,0.01 h 0.54 L 64,67.62 h 0.54 l 0.55,0.01 h 0.54 l 0.55,0.01 0.54,0.01 0.54,0.01 h 0.55 l 0.54,0.01 0.55,0.01 0.54,0.01 0.54,0.02 0.55,0.01 0.54,0.01 0.55,0.01 0.54,0.02 0.54,0.01 0.55,0.02 0.54,0.02 0.55,0.02 0.54,0.02 0.54,0.02 0.55,0.02 0.54,0.03 0.55,0.02 0.54,0.03 0.55,0.03 0.54,0.03 0.54,0.04 0.55,0.03 0.54,0.04 0.55,0.04 0.54,0.04 0.54,0.05 0.55,0.05 0.54,0.05 0.55,0.05 0.54,0.06 0.54,0.06 0.55,0.07 0.54,0.07 0.55,0.07 0.54,0.08 0.55,0.08 0.54,0.08 0.54,0.09 0.55,0.1 0.54,0.1 0.55,0.1 0.54,0.11 0.54,0.12 0.55,0.13 0.54,0.13 0.55,0.13 0.54,0.15 0.54,0.15 0.55,0.16 0.54,0.16 0.55,0.18 0.54,0.18 0.54,0.19 0.55,0.21 0.54,0.21 0.55,0.22 0.54,0.23 0.55,0.24 0.54,0.26 0.54,0.26 0.55,0.28 0.54,0.29 0.55,0.3 0.54,0.32 0.54,0.32 0.55,0.35 0.54,0.35 0.55,0.38 0.54,0.38 0.54,0.41 0.55,0.41 0.54,0.44 0.55,0.45 0.54,0.47 0.55,0.49 0.54,0.5 0.54,0.53 0.55,0.54 0.54,0.57 0.55,0.58 0.54,0.6 0.54,0.63 0.55,0.64 0.54,0.67 0.55,0.69 0.54,0.71 0.54,0.74 0.55,0.75 0.54,0.79 0.55,0.8 0.54,0.83 0.54,0.85 0.55,0.88 0.54,0.9 0.55,0.93 0.54,0.96 0.55,0.97 0.54,1.01 0.54,1.03 0.55,1.06 0.54,1.08 0.55,1.11 0.54,1.13 0.54,1.16 0.55,1.19 0.54,1.22 0.55,1.23 0.54,1.27 0.54,1.29 0.55,1.32 0.54,1.34 0.55,1.36 0.54,1.39 0.55,1.42 0.54,1.44 0.54,1.46 0.55,1.48 0.54,1.51 0.55,1.53 0.54,1.55 0.54,1.57 0.55,1.59 0.54,1.61 0.55,1.63 0.54,1.64 0.54,1.66 0.55,1.68 0.54,1.69 0.55,1.71 0.54,1.71 0.54,1.73 0.55,1.74 0.54,1.75 0.55,1.76 0.54,1.76 0.55,1.77 0.54,1.77 0.54,1.78 0.55,1.77 0.54,1.78 0.55,1.77 0.54,1.78 0.54,1.76 0.55,1.77 0.54,1.75 0.55,1.75 0.54,1.73 0.54,1.73 0.55,1.71 0.54,1.69 0.55,1.68 0.54,1.66 0.55,1.63 0.54,1.62 0.54,1.59 0.55,1.57 0.54,1.54 0.55,1.52 0.54,1.48 0.54,1.45 0.55,1.42 0.54,1.39 0.55,1.35 0.54,1.31 0.54,1.27 0.55,1.24 0.54,1.19 0.55,1.15 0.54,1.1 0.54,1.06 0.55,1.01 0.54,0.97 0.55,0.91 0.54,0.87 0.55,0.81 0.54,0.76 0.54,0.71 0.55,0.66 0.54,0.6 0.55,0.55 0.54,0.49 0.54,0.43 0.55,0.38 0.54,0.32 0.55,0.26 0.54,0.21 0.54,0.15 0.55,0.08 0.54,0.03 0.55,-0.03 0.54,-0.08 0.55,-0.15 0.54,-0.21 0.54,-0.26 0.55,-0.32 0.54,-0.38 0.55,-0.43 0.54,-0.49 0.54,-0.55 0.55,-0.6 0.54,-0.66 0.55,-0.71 0.54,-0.76 0.54,-0.81 0.55,-0.87 0.54,-0.91 0.55,-0.97 0.54,-1.01 0.54,-1.06 0.55,-1.1 0.54,-1.15 0.55,-1.19 0.54,-1.24 0.55,-1.27 0.54,-1.31 0.54,-1.35 0.55,-1.39 0.54,-1.42 0.55,-1.45 0.54,-1.48 0.54,-1.52 0.55,-1.54 0.54,-1.57 0.55,-1.59 0.54,-1.62 0.54,-1.63 0.55,-1.66 0.54,-1.68 0.55,-1.69 0.54,-1.71 0.55,-1.73 0.54,-1.73 0.54,-1.75 0.55,-1.75 0.54,-1.77 0.55,-1.76 0.54,-1.78 0.54,-1.77 0.55,-1.78 0.54,-1.77 0.55,-1.78 0.54,-1.77 0.54,-1.77 0.55,-1.76 0.54,-1.76 0.55,-1.75 0.54,-1.74 0.54,-1.73 0.55,-1.71 0.54,-1.71 0.55,-1.69 0.54,-1.68 0.55,-1.66 0.54,-1.64 0.54,-1.63 0.55,-1.61 0.54,-1.59 0.55,-1.57 0.54,-1.55 0.54,-1.53 0.55,-1.51 0.54,-1.48 0.55,-1.46 0.54,-1.44 0.54,-1.42 0.55,-1.39 0.54,-1.36 0.55,-1.34 0.54,-1.32 0.55,-1.29 0.54,-1.27 0.54,-1.23 0.55,-1.22 0.54,-1.19 0.55,-1.16 0.54,-1.13 0.54,-1.11 0.55,-1.08 0.54,-1.06 0.55,-1.03 0.54,-1.01 0.54,-0.97 0.55,-0.96 0.54,-0.93 0.55,-0.9 0.54,-0.88 0.54,-0.85 0.55,-0.83 0.54,-0.8 0.55,-0.79 0.54,-0.75 0.55,-0.74 0.54,-0.71 0.54,-0.69 0.55,-0.67 0.54,-0.64 0.55,-0.63 0.54,-0.6 0.54,-0.58 0.55,-0.57 0.54,-0.54 0.55,-0.53 0.54,-0.5 0.54,-0.49 0.55,-0.47 0.54,-0.45 0.55,-0.44 0.54,-0.41 0.55,-0.41 0.54,-0.38 0.54,-0.38 0.55,-0.35 0.54,-0.35 0.55,-0.32 0.54,-0.32 0.54,-0.3 0.55,-0.29 0.54,-0.28 0.55,-0.26 0.54,-0.26 0.54,-0.24 0.55,-0.23 0.54,-0.22 0.55,-0.21 0.54,-0.21 0.54,-0.19 0.55,-0.18 0.54,-0.18 0.55,-0.16 0.54,-0.16 0.55,-0.15 0.54,-0.15 0.54,-0.13 0.55,-0.13 0.54,-0.13 0.55,-0.12 0.54,-0.11 0.54,-0.1 0.55,-0.1 0.54,-0.1 0.55,-0.09 0.54,-0.08 0.54,-0.08 0.55,-0.08 0.54,-0.07 0.55,-0.07 0.54,-0.07 0.55,-0.06 0.54,-0.06 0.54,-0.05 0.55,-0.05 0.54,-0.05 0.55,-0.05 0.54,-0.04"
       style="fill:none;stroke:#00008b;stroke-width:1.5;stroke-linecap:round;stroke-linejoin:round;stroke-miterlimit:10;stroke-dasharray:none;stroke-opacity:1"
       id="path1111"
       inkscape:connector-curvature="0" /><path
       d="m 56.93,71.7 0.54,0.13 0.54,0.13 0.55,0.14 0.54,0.14 0.55,0.15 0.54,0.15 0.54,0.15 0.55,0.16 0.54,0.16 0.55,0.16 0.54,0.17 0.54,0.17 0.55,0.18 0.54,0.18 0.55,0.18 0.54,0.19 0.55,0.19 0.54,0.2 0.54,0.2 0.55,0.21 0.54,0.21 0.55,0.22 0.54,0.22 0.54,0.23 0.55,0.23 0.54,0.23 0.55,0.25 0.54,0.24 0.54,0.25 0.55,0.26 0.54,0.26 0.55,0.27 0.54,0.27 0.54,0.28 0.55,0.29 0.54,0.29 0.55,0.29 0.54,0.3 0.55,0.31 0.54,0.31 0.54,0.32 0.55,0.33 0.54,0.33 0.55,0.33 0.54,0.35 0.54,0.34 0.55,0.36 0.54,0.36 0.55,0.37 0.54,0.37 0.54,0.38 0.55,0.38 0.54,0.4 0.55,0.39 0.54,0.41 0.55,0.41 0.54,0.42 0.54,0.42 0.55,0.43 0.54,0.44 0.55,0.44 0.54,0.45 0.54,0.45 0.55,0.47 0.54,0.46 0.55,0.48 0.54,0.48 0.54,0.49 0.55,0.49 0.54,0.5 0.55,0.51 0.54,0.51 0.54,0.52 0.55,0.52 0.54,0.53 0.55,0.54 0.54,0.54 0.55,0.55 0.54,0.55 0.54,0.56 0.55,0.57 0.54,0.57 0.55,0.58 0.54,0.58 0.54,0.59 0.55,0.59 0.54,0.6 0.55,0.61 0.54,0.61 0.54,0.61 0.55,0.62 0.54,0.62 0.55,0.63 0.54,0.63 0.55,0.64 0.54,0.64 0.54,0.65 0.55,0.64 0.54,0.66 0.55,0.65 0.54,0.66 0.54,0.67 0.55,0.67 0.54,0.67 0.55,0.67 0.54,0.67 0.54,0.68 0.55,0.68 0.54,0.69 0.55,0.68 0.54,0.69 0.54,0.69 0.55,0.68 0.54,0.7 0.55,0.69 0.54,0.69 0.55,0.69 0.54,0.7 0.54,0.69 0.55,0.7 0.54,0.69 0.55,0.69 0.54,0.7 0.54,0.69 0.55,0.69 0.54,0.69 0.55,0.69 0.54,0.68 0.54,0.69 0.55,0.68 0.54,0.68 0.55,0.67 0.54,0.68 0.55,0.67 0.54,0.66 0.54,0.67 0.55,0.66 0.54,0.65 0.55,0.65 0.54,0.65 0.54,0.64 0.55,0.63 0.54,0.63 0.55,0.63 0.54,0.61 0.54,0.62 0.55,0.6 0.54,0.6 0.55,0.59 0.54,0.59 0.54,0.58 0.55,0.56 0.54,0.57 0.55,0.55 0.54,0.55 0.55,0.53 0.54,0.53 0.54,0.52 0.55,0.51 0.54,0.5 0.55,0.49 0.54,0.48 0.54,0.47 0.55,0.46 0.54,0.45 0.55,0.44 0.54,0.43 0.54,0.42 0.55,0.4 0.54,0.4 0.55,0.38 0.54,0.37 0.55,0.36 0.54,0.34 0.54,0.34 0.55,0.32 0.54,0.31 0.55,0.3 0.54,0.28 0.54,0.27 0.55,0.26 0.54,0.24 0.55,0.23 0.54,0.22 0.54,0.21 0.55,0.19 0.54,0.17 0.55,0.17 0.54,0.15 0.54,0.13 0.55,0.12 0.54,0.11 0.55,0.09 0.54,0.08 0.55,0.06 0.54,0.05 0.54,0.04 0.55,0.02 0.54,0.01 0.55,-0.01 0.54,-0.02 0.54,-0.04 0.55,-0.05 0.54,-0.06 0.55,-0.08 0.54,-0.09 0.54,-0.11 0.55,-0.12 0.54,-0.13 0.55,-0.15 0.54,-0.17 0.55,-0.17 0.54,-0.19 0.54,-0.21 0.55,-0.22 0.54,-0.23 0.55,-0.24 0.54,-0.26 0.54,-0.27 0.55,-0.28 0.54,-0.3 0.55,-0.31 0.54,-0.32 0.54,-0.34 0.55,-0.34 0.54,-0.36 0.55,-0.37 0.54,-0.38 0.54,-0.4 0.55,-0.4 0.54,-0.42 0.55,-0.43 0.54,-0.44 0.55,-0.45 0.54,-0.46 0.54,-0.47 0.55,-0.48 0.54,-0.49 0.55,-0.5 0.54,-0.51 0.54,-0.52 0.55,-0.53 0.54,-0.53 0.55,-0.55 0.54,-0.55 0.54,-0.57 0.55,-0.56 0.54,-0.58 0.55,-0.59 0.54,-0.59 0.55,-0.6 0.54,-0.6 0.54,-0.62 0.55,-0.61 0.54,-0.63 0.55,-0.63 0.54,-0.63 0.54,-0.64 0.55,-0.65 0.54,-0.65 0.55,-0.65 0.54,-0.66 0.54,-0.67 0.55,-0.66 0.54,-0.67 0.55,-0.68 0.54,-0.67 0.54,-0.68 0.55,-0.68 0.54,-0.69 0.55,-0.68 0.54,-0.69 0.55,-0.69 0.54,-0.69 0.54,-0.69 0.55,-0.7 0.54,-0.69 0.55,-0.69 0.54,-0.7 0.54,-0.69 0.55,-0.7 0.54,-0.69 0.55,-0.69 0.54,-0.69 0.54,-0.7 0.55,-0.68 0.54,-0.69 0.55,-0.69 0.54,-0.68 0.55,-0.69 0.54,-0.68 0.54,-0.68 0.55,-0.67 0.54,-0.67 0.55,-0.67 0.54,-0.67 0.54,-0.67 0.55,-0.66 0.54,-0.65 0.55,-0.66 0.54,-0.64 0.54,-0.65 0.55,-0.64 0.54,-0.64 0.55,-0.63 0.54,-0.63 0.54,-0.62 0.55,-0.62 0.54,-0.61 0.55,-0.61 0.54,-0.61 0.55,-0.6 0.54,-0.59 0.54,-0.59 0.55,-0.58 0.54,-0.58 0.55,-0.57 0.54,-0.57 0.54,-0.56 0.55,-0.55 0.54,-0.55 0.55,-0.54 0.54,-0.54 0.54,-0.53 0.55,-0.52 0.54,-0.52 0.55,-0.51 0.54,-0.51 0.55,-0.5 0.54,-0.49 0.54,-0.49 0.55,-0.48 0.54,-0.48 0.55,-0.46 0.54,-0.47 0.54,-0.45 0.55,-0.45 0.54,-0.44 0.55,-0.44 0.54,-0.43 0.54,-0.42 0.55,-0.42 0.54,-0.41 0.55,-0.41 0.54,-0.39 0.54,-0.4 0.55,-0.38 0.54,-0.38 0.55,-0.37 0.54,-0.37 0.55,-0.36 0.54,-0.36 0.54,-0.34 0.55,-0.35 0.54,-0.33 0.55,-0.33 0.54,-0.33 0.54,-0.32 0.55,-0.31 0.54,-0.31 0.55,-0.3 0.54,-0.29 0.54,-0.29 0.55,-0.29"
       style="fill:none;stroke:#fa8072;stroke-width:1.5;stroke-linecap:round;stroke-linejoin:round;stroke-miterlimit:10;stroke-dasharray:4.5, 7.5;stroke-dashoffset:0;stroke-opacity:1"
       id="path1113"
       inkscape:connector-curvature="0" /><path
       d="m 84.13,71.7 0.54,0.13 0.55,0.13 0.54,0.14 0.55,0.14 0.54,0.15 0.55,0.15 0.54,0.15 0.54,0.16 0.55,0.16 0.54,0.16 0.55,0.17 0.54,0.17 0.54,0.18 0.55,0.18 0.54,0.18 0.55,0.19 0.54,0.19 0.54,0.2 0.55,0.2 0.54,0.21 0.55,0.21 0.54,0.22 0.54,0.22 0.55,0.23 0.54,0.23 0.55,0.23 0.54,0.25 0.55,0.24 0.54,0.25 0.54,0.26 0.55,0.26 0.54,0.27 0.55,0.27 0.54,0.28 0.54,0.29 0.55,0.29 0.54,0.29 0.55,0.3 0.54,0.31 0.54,0.31 0.55,0.32 0.54,0.33 0.55,0.33 0.54,0.33 0.55,0.35 0.54,0.34 0.54,0.36 0.55,0.36 0.54,0.37 0.55,0.37 0.54,0.38 0.54,0.38 0.55,0.4 0.54,0.39 0.55,0.41 0.54,0.41 0.54,0.42 0.55,0.42 0.54,0.43 0.55,0.44 0.54,0.44 0.54,0.45 0.55,0.45 0.54,0.47 0.55,0.46 0.54,0.48 0.55,0.48 0.54,0.49 0.54,0.49 0.55,0.5 0.54,0.51 0.55,0.51 0.54,0.52 0.54,0.52 0.55,0.53 0.54,0.54 0.55,0.54 0.54,0.55 0.54,0.55 0.55,0.56 0.54,0.57 0.55,0.57 0.54,0.58 0.55,0.58 0.54,0.59 0.54,0.59 0.55,0.6 0.54,0.61 0.55,0.61 0.54,0.61 0.54,0.62 0.55,0.62 0.54,0.63 0.55,0.63 0.54,0.64 0.54,0.64 0.55,0.65 0.54,0.64 0.55,0.66 0.54,0.65 0.54,0.66 0.55,0.67 0.54,0.67 0.55,0.67 0.54,0.67 0.55,0.67 0.54,0.68 0.54,0.68 0.55,0.69 0.54,0.68 0.55,0.69 0.54,0.69 0.54,0.68 0.55,0.7 0.54,0.69 0.55,0.69 0.54,0.69 0.54,0.7 0.55,0.69 0.54,0.7 0.55,0.69 0.54,0.69 0.55,0.7 0.54,0.69 0.54,0.69 0.55,0.69 0.54,0.69 0.55,0.68 0.54,0.69 0.54,0.68 0.55,0.68 0.54,0.67 0.55,0.68 0.54,0.67 0.54,0.66 0.55,0.67 0.54,0.66 0.55,0.65 0.54,0.65 0.54,0.65 0.55,0.64 0.54,0.63 0.55,0.63 0.54,0.63 0.55,0.61 0.54,0.62 0.54,0.6 0.55,0.6 0.54,0.59 0.55,0.59 0.54,0.58 0.54,0.56 0.55,0.57 0.54,0.55 0.55,0.55 0.54,0.53 0.54,0.53 0.55,0.52 0.54,0.51 0.55,0.5 0.54,0.49 0.55,0.48 0.54,0.47 0.54,0.46 0.55,0.45 0.54,0.44 0.55,0.43 0.54,0.42 0.54,0.4 0.55,0.4 0.54,0.38 0.55,0.37 0.54,0.36 0.54,0.34 0.55,0.34 0.54,0.32 0.55,0.31 0.54,0.3 0.54,0.28 0.55,0.27 0.54,0.26 0.55,0.24 0.54,0.23 0.55,0.22 0.54,0.21 0.54,0.19 0.55,0.17 0.54,0.17 0.55,0.15 0.54,0.13 0.54,0.12 0.55,0.11 0.54,0.09 0.55,0.08 0.54,0.06 0.54,0.05 0.55,0.04 0.54,0.02 0.55,0.01 0.54,-0.01 0.55,-0.02 0.54,-0.04 0.54,-0.05 0.55,-0.06 0.54,-0.08 0.55,-0.09 0.54,-0.11 0.54,-0.12 0.55,-0.13 0.54,-0.15 0.55,-0.17 0.54,-0.17 0.54,-0.19 0.55,-0.21 0.54,-0.22 0.55,-0.23 0.54,-0.24 0.54,-0.26 0.55,-0.27 0.54,-0.28 0.55,-0.3 0.54,-0.31 0.55,-0.32 0.54,-0.34 0.54,-0.34 0.55,-0.36 0.54,-0.37 0.55,-0.38 0.54,-0.4 0.54,-0.4 0.55,-0.42 0.54,-0.43 0.55,-0.44 0.54,-0.45 0.54,-0.46 0.55,-0.47 0.54,-0.48 0.55,-0.49 0.54,-0.5 0.55,-0.51 0.54,-0.52 0.54,-0.53 0.55,-0.53 0.54,-0.55 0.55,-0.55 0.54,-0.57 0.54,-0.56 0.55,-0.58 0.54,-0.59 0.55,-0.59 0.54,-0.6 0.54,-0.6 0.55,-0.62 0.54,-0.61 0.55,-0.63 0.54,-0.63 0.54,-0.63 0.55,-0.64 0.54,-0.65 0.55,-0.65 0.54,-0.65 0.55,-0.66 0.54,-0.67 0.54,-0.66 0.55,-0.67 0.54,-0.68 0.55,-0.67 0.54,-0.68 0.54,-0.68 0.55,-0.69 0.54,-0.68 0.55,-0.69 0.54,-0.69 0.54,-0.69 0.55,-0.69 0.54,-0.7 0.55,-0.69 0.54,-0.69 0.55,-0.7 0.54,-0.69 0.54,-0.7 0.55,-0.69 0.54,-0.69 0.55,-0.69 0.54,-0.7 0.54,-0.68 0.55,-0.69 0.54,-0.69 0.55,-0.68 0.54,-0.69 0.54,-0.68 0.55,-0.68 0.54,-0.67 0.55,-0.67 0.54,-0.67 0.54,-0.67 0.55,-0.67 0.54,-0.66 0.55,-0.65 0.54,-0.66 0.55,-0.64 0.54,-0.65 0.54,-0.64 0.55,-0.64 0.54,-0.63 0.55,-0.63 0.54,-0.62 0.54,-0.62 0.55,-0.61 0.54,-0.61 0.55,-0.61 0.54,-0.6 0.54,-0.59 0.55,-0.59 0.54,-0.58 0.55,-0.58 0.54,-0.57 0.55,-0.57 0.54,-0.56 0.54,-0.55 0.55,-0.55 0.54,-0.54 0.55,-0.54 0.54,-0.53 0.54,-0.52 0.55,-0.52 0.54,-0.51 0.55,-0.51 0.54,-0.5 0.54,-0.49 0.55,-0.49 0.54,-0.48 0.55,-0.48 0.54,-0.46 0.54,-0.47 0.55,-0.45 0.54,-0.45 0.55,-0.44 0.54,-0.44 0.55,-0.43 0.54,-0.42 0.54,-0.42 0.55,-0.41 0.54,-0.41 0.55,-0.39 0.54,-0.4 0.54,-0.38 0.55,-0.38 0.54,-0.37 0.55,-0.37 0.54,-0.36 0.54,-0.36 0.55,-0.34 0.54,-0.35 0.55,-0.33 0.54,-0.33 0.55,-0.33 0.54,-0.32 0.54,-0.31 0.55,-0.31 0.54,-0.3 0.55,-0.29 0.54,-0.29 0.54,-0.29"
       style="fill:none;stroke:#fa8072;stroke-width:1.5;stroke-linecap:round;stroke-linejoin:round;stroke-miterlimit:10;stroke-dasharray:none;stroke-opacity:1"
       id="path1115"
       inkscape:connector-curvature="0" /><path
       d="m 121.67,229.97 h 87.06"
       style="fill:none;stroke:#fa8072;stroke-width:1.5;stroke-linecap:round;stroke-linejoin:round;stroke-miterlimit:10;stroke-dasharray:4.5, 7.5;stroke-dashoffset:0;stroke-opacity:1"
       id="path1125"
       inkscape:connector-curvature="0" /><path
       d="m 162.51,229.97 c 0,1.48 1.21,2.69 2.69,2.69 1.48,0 2.69,-1.21 2.69,-2.69 0,-1.48 -1.21,-2.69 -2.69,-2.69 -1.48,0 -2.69,1.21 -2.69,2.69"
       style="fill:#fa8072;fill-opacity:1;fill-rule:nonzero;stroke:#000000;stroke-width:0.75;stroke-linecap:round;stroke-linejoin:round;stroke-miterlimit:10;stroke-dasharray:none;stroke-opacity:1"
       id="path1127"
       inkscape:connector-curvature="0" /><path
       d="m 148.88,223.79 h 87.06"
       style="fill:none;stroke:#fa8072;stroke-width:1.5;stroke-linecap:round;stroke-linejoin:round;stroke-miterlimit:10;stroke-dasharray:none;stroke-opacity:1"
       id="path1129"
       inkscape:connector-curvature="0" /><path
       d="m 189.72,223.79 c 0,1.48 1.21,2.69 2.69,2.69 1.48,0 2.69,-1.21 2.69,-2.69 0,-1.48 -1.21,-2.69 -2.69,-2.69 -1.48,0 -2.69,1.21 -2.69,2.69"
       style="fill:#fa8072;fill-opacity:1;fill-rule:nonzero;stroke:#000000;stroke-width:0.75;stroke-linecap:round;stroke-linejoin:round;stroke-miterlimit:10;stroke-dasharray:none;stroke-opacity:1"
       id="path1131"
       inkscape:connector-curvature="0" /></g><path
     d="m 138,253.4 h 54.41"
     style="fill:none;stroke:#00008b;stroke-width:1.5;stroke-linecap:round;stroke-linejoin:round;stroke-miterlimit:10;stroke-dasharray:4.5, 7.5;stroke-dashoffset:0;stroke-opacity:1"
     id="path1117"
     inkscape:connector-curvature="0" /><path
     d="m 143.44,247.22 h 54.41"
     style="fill:none;stroke:#00008b;stroke-width:1.5;stroke-linecap:round;stroke-linejoin:round;stroke-miterlimit:10;stroke-dasharray:none;stroke-opacity:1"
     id="path1121"
     inkscape:connector-curvature="0" /><path
     d="m 162.51,253.4 c 0,1.48 1.21,2.69 2.69,2.69 1.48,0 2.69,-1.21 2.69,-2.69 0,-1.48 -1.21,-2.69 -2.69,-2.69 -1.48,0 -2.69,1.21 -2.69,2.69"
     style="fill:#00008b;fill-opacity:1;fill-rule:nonzero;stroke:#000000;stroke-width:0.75;stroke-linecap:round;stroke-linejoin:round;stroke-miterlimit:10;stroke-dasharray:none;stroke-opacity:1"
     id="path1119"
     inkscape:connector-curvature="0" /><path
     d="m 167.95,247.22 c 0,1.48 1.21,2.69 2.69,2.69 1.48,0 2.69,-1.21 2.69,-2.69 0,-1.48 -1.21,-2.69 -2.69,-2.69 -1.48,0 -2.69,1.21 -2.69,2.69"
     style="fill:#00008b;fill-opacity:1;fill-rule:nonzero;stroke:#000000;stroke-width:0.75;stroke-linecap:round;stroke-linejoin:round;stroke-miterlimit:10;stroke-dasharray:none;stroke-opacity:1"
     id="path1123"
     inkscape:connector-curvature="0" /></g><g
   id="g1133"
   transform="translate(-7.5,-3)"><text
   transform="matrix(1,0,0,-1,49,277.24)"
   style="font-variant:normal;font-weight:normal;font-size:14px;font-family:Helvetica;-inkscape-font-specification:Helvetica;writing-mode:lr-tb;fill:#000000;fill-opacity:1;fill-rule:nonzero;stroke:none"
   id="text1137"><tspan
     x="0 11.662 14.77 21.77 33.431999 41.216 45.108002 52.108002 59.891998 67.676003 75.459999 79.351997 87.136002 94.919998 102.704 110.488 118.272 121.38 129.164 136.948 140.056 147.056 154.84 157.948 161.84 168.84 176.62399 179.73199 183.62399 187.51601 194.51601"
     y="0"
     sodipodi:role="line"
     id="tspan1135">Mismatched phenological shifts:</tspan></text>

</g><g
   style="stroke-width:2.49749994;stroke-miterlimit:10;stroke-dasharray:none"
   transform="translate(0,39)"
   clip-path="url(#clipPath1145)"
   id="g1141"><path
     inkscape:connector-curvature="0"
     id="path1147"
     style="fill:none;stroke:#00008b;stroke-width:2.49749994;stroke-linecap:round;stroke-linejoin:round;stroke-miterlimit:10;stroke-dasharray:none;stroke-opacity:1"
     d="m 165.2,226.89 h 5.44" /><path
     inkscape:connector-curvature="0"
     id="path1149"
     style="fill:none;stroke:#00008b;stroke-width:2.49749994;stroke-linecap:round;stroke-linejoin:round;stroke-miterlimit:10;stroke-dasharray:none;stroke-opacity:1"
     d="m 168.1,224.35 2.54,2.54 -2.54,2.55" /><path
     inkscape:connector-curvature="0"
     id="path1151"
     style="fill:none;stroke:#fa8072;stroke-width:2.49749994;stroke-linecap:round;stroke-linejoin:round;stroke-miterlimit:10;stroke-dasharray:none;stroke-opacity:1"
     d="m 165.2,195.96 h 27.21" /><path
     inkscape:connector-curvature="0"
     id="path1153"
     style="fill:none;stroke:#fa8072;stroke-width:2.49749994;stroke-linecap:round;stroke-linejoin:round;stroke-miterlimit:10;stroke-dasharray:none;stroke-opacity:1"
     d="m 189.86,193.41 2.55,2.55 -2.55,2.55" /></g><g
   id="g1163"
   transform="translate(-15)"><text
   transform="matrix(1,0,0,-1,49,253.34)"
   style="font-variant:normal;font-weight:normal;font-size:14px;font-family:Helvetica;-inkscape-font-specification:Helvetica;writing-mode:lr-tb;fill:#000000;fill-opacity:1;fill-rule:nonzero;stroke:none"
   id="text1167"><tspan
     x="0 10.108"
     y="0"
     sodipodi:role="line"
     id="tspan1165">C)</tspan></text>

</g><g
   id="g1169"><g
     id="g1171"
     clip-path="url(#clipPath1175)"><path
       d="m 344.93,149.98 h 0.54 0.54 0.55 0.54 0.55 0.54 0.54 0.55 0.54 0.55 0.54 0.54 0.55 0.54 0.55 0.54 0.55 0.54 0.54 0.55 0.54 0.55 0.54 0.54 0.55 0.54 0.55 0.54 0.54 0.55 0.54 0.55 0.54 0.54 0.55 0.54 0.55 0.54 0.55 0.54 0.54 0.55 0.54 0.55 0.54 0.54 0.55 0.54 0.55 0.54 0.54 0.55 0.54 0.55 0.54 0.55 0.54 0.54 0.55 0.54 0.55 0.54 0.54 0.55 0.54 0.55 0.54 0.54 0.55 0.54 0.55 0.54 0.54 0.55 0.54 0.55 0.54 0.55 0.54 0.54 0.55 0.54 0.55 0.54 0.54 0.55 0.54 0.55 0.54 0.54 0.55 0.54 0.55 0.54 0.55 0.54 0.54 0.55 0.54 0.55 0.54 0.54 0.55 0.54 0.55 0.54 0.54 0.55 0.54 0.55 0.54 0.54 0.55 0.54 0.55 0.54 0.55 0.54 0.54 0.55 0.54 0.55 0.54 0.54 0.55 0.54 0.55 0.54 0.54 0.55 0.54 0.55 0.54 0.55 0.54 0.54 0.55 0.54 0.55 0.54 0.54 0.55 0.54 0.55 0.54 0.54 0.55 0.54 0.55 0.54 0.54 0.55 0.54 0.55 0.54 0.55 0.54 0.54 0.55 0.54 0.55 0.54 0.54 0.55 0.54 0.55 0.54 0.54 0.55 0.54 0.55 0.54 0.55 0.54 0.54 0.55 0.54 0.55 0.54 0.54 0.55 0.54 0.55 0.54 0.54 0.55 0.54 0.55 0.54 0.54 0.55 0.54 0.55 0.54 0.55 0.54 0.54 0.55 0.54 0.55 0.54 0.54 0.55 0.54 0.55 0.54 0.54 0.55 0.54 0.55 0.54 0.55 0.54 0.54 0.55 0.54 0.55 0.54 0.54 0.55 0.54 0.55 0.54 0.54 0.55 0.54 0.55 0.54 0.54 0.55 0.54 0.55 0.54 0.55 0.54 0.54 0.55 0.54 0.55 0.54 0.54 0.55 0.54 0.55 0.54 0.54 0.55 0.54 0.55 0.54 0.55 0.54 0.54 0.55 0.54 0.55 0.54 0.54 0.55 0.54 0.55 0.54 0.54 0.55 0.54 0.55 0.54 0.54 0.55 0.54 0.55 0.54 0.55 0.54 0.54 0.55 0.54 0.55 0.54 0.54 0.55 0.54 0.55 0.54 0.54 0.55 0.54 0.55 0.54 0.55 0.54 0.54 0.55 0.54 0.55 0.54 0.54 0.55 0.54 0.55 0.54 0.54 0.55 0.54 0.55 0.54 0.54 0.55 0.54 0.55 0.54 0.55 0.54 0.54 0.55 0.54 0.55 0.54 0.54 0.55 0.54 0.55 0.54 0.54 0.55 0.54 0.55 0.54 0.55 0.54 0.54 0.55 0.54 0.55 0.54 0.54 0.55 0.54 0.55 0.54 0.54 0.55 0.54 0.55 0.54 0.54 0.55 0.54 0.55 0.54 0.55 0.54 0.54 0.55 0.54 0.55 0.54 0.54 0.55 0.54 0.55 0.54 0.54 0.55"
       style="fill:none;stroke:#000000;stroke-width:1.5;stroke-linecap:round;stroke-linejoin:round;stroke-miterlimit:10;stroke-dasharray:0, 6;stroke-dashoffset:0;stroke-opacity:1"
       id="path1177"
       inkscape:connector-curvature="0" /></g></g><g
   id="g1179"><path
   d="M 344.38,60.96 H 507.61"
   style="fill:none;stroke:#000000;stroke-width:0.75;stroke-linecap:round;stroke-linejoin:round;stroke-miterlimit:10;stroke-dasharray:none;stroke-opacity:1"
   id="path1181"
   inkscape:connector-curvature="0" />



<path
   d="m 337,112.82 v 112.6"
   style="fill:none;stroke:#000000;stroke-width:0.75;stroke-linecap:round;stroke-linejoin:round;stroke-miterlimit:10;stroke-dasharray:none;stroke-opacity:1"
   id="path1207"
   inkscape:connector-curvature="0" />


<path
   d="M 337,239 V 60.96 h 213.9"
   style="fill:none;stroke:#000000;stroke-width:0.75;stroke-linecap:round;stroke-linejoin:round;stroke-miterlimit:10;stroke-dasharray:none;stroke-opacity:1"
   id="path1227"
   inkscape:connector-curvature="0" /></g><g
   id="g1229"><g
     id="g1231"
     clip-path="url(#clipPath1235)"><text
   transform="scale(1,-1)"
   style="font-variant:normal;font-weight:normal;font-size:15px;font-family:Helvetica;-inkscape-font-specification:Helvetica;writing-mode:lr-tb;fill:#000000;fill-opacity:1;fill-rule:nonzero;stroke:none"
   id="text1239"
   x="397.22"
   y="-27.540001"><tspan
     x="397.22 405.56 413.89999 422.23999 429.73999 433.91 442.25 447.245 455.285 462.785 466.95499 475.29498 483.185"
     y="-27.540001"
     sodipodi:role="line"
     id="tspan1237">peak prey day</tspan></text>

<text
   transform="matrix(0,1,1,0,0,0)"
   style="font-variant:normal;font-weight:normal;font-size:15px;font-family:Helvetica;-inkscape-font-specification:Helvetica;writing-mode:lr-tb;fill:#000000;fill-opacity:1;fill-rule:nonzero;stroke:none"
   id="text1243"
   x="89.75"
   y="310.76001"><tspan
     x="89.75 98.089996 106.43 114.77 122.27 126.44 134.78 139.77499 148.11501 156.455 164.795 168.965 177.30499 182.3 186.47 194.81 202.7"
     y="310.76001"
     sodipodi:role="line"
     id="tspan1241">peak predator day</tspan></text>

</g></g><g
   id="g1245"
   transform="translate(-15)"><text
   transform="matrix(1,0,0,-1,337,253.34)"
   style="font-variant:normal;font-weight:normal;font-size:14px;font-family:Helvetica;-inkscape-font-specification:Helvetica;writing-mode:lr-tb;fill:#000000;fill-opacity:1;fill-rule:nonzero;stroke:none"
   id="text1249"><tspan
     x="0 10.108"
     y="0"
     sodipodi:role="line"
     id="tspan1247">D)</tspan></text>

</g><path
   inkscape:connector-curvature="0"
   id="path945"
   style="fill:none;stroke:#00008b;stroke-width:2.47500006;stroke-linecap:round;stroke-linejoin:round;stroke-miterlimit:10;stroke-dasharray:none;stroke-opacity:1"
   d="m 189.86,550.7 2.55,2.55 -2.55,2.54" /><path
   inkscape:connector-curvature="0"
   id="path943"
   style="fill:none;stroke:#00008b;stroke-width:2.32500006;stroke-linecap:round;stroke-linejoin:round;stroke-miterlimit:10;stroke-dasharray:none;stroke-opacity:1"
   d="m 165.2,553.25 h 27.21" /><text
   y="-548.28998"
   x="210.87"
   id="text953"
   style="font-variant:normal;font-weight:normal;font-size:10px;font-family:Helvetica;-inkscape-font-specification:Helvetica;writing-mode:lr-tb;fill:#00008b;fill-opacity:1;fill-rule:nonzero;stroke:none;"
   transform="scale(1,-1)"><tspan
     id="tspan951"
     sodipodi:role="line"
     y="-548.28998"
     x="210.87 216.42999 219.75999 225.32001 230.88 236.44 239.22 244.78 248.11 250.89 255.89 261.45001 263.67001 266.45001"
     style="-inkscape-font-specification:'Helvetica, Normal';font-family:Helvetica;font-weight:normal;font-style:normal;font-stretch:normal;font-variant:normal;font-size:12.0000003px;text-anchor:start;text-align:start;writing-mode:lr;font-variant-ligatures:normal;font-variant-caps:normal;font-variant-numeric:normal;font-feature-settings:normal;fill:#00008b;fill-opacity:1;">predator shift</tspan></text>

</g></svg>